<?xml version="1.0" encoding="UTF-8"?>
<svg version="1.1" xmlns="http://www.w3.org/2000/svg" width="414" height="301">
<path d="M0 0 C136.62 0 273.24 0 414 0 C414 99.33 414 198.66 414 301 C277.38 301 140.76 301 0 301 C0 201.67 0 102.34 0 0 Z " fill="#FAFAF8" transform="translate(0,0)"/>
<path d="M0 0 C7.22211071 5.48535526 13.43259907 11.73534116 16.71777344 20.3046875 C17.34425781 21.72974609 17.34425781 21.72974609 17.98339844 23.18359375 C27.82240334 45.77372281 25.74528159 67.28425847 19.4453125 90.54052734 C18.41914954 94.43925788 17.56102189 98.36270567 16.71777344 102.3046875 C17.30945313 102.82417969 17.90113281 103.34367187 18.51074219 103.87890625 C27.67183878 111.96398497 27.67183878 111.96398497 30.71777344 115.3046875 C30.71777344 115.9646875 30.71777344 116.6246875 30.71777344 117.3046875 C31.27464844 117.3665625 31.83152344 117.4284375 32.40527344 117.4921875 C35.6922276 118.64706329 37.30271017 120.80300073 39.71777344 123.3046875 C40.67194698 124.27366973 41.62771184 125.24108721 42.58496094 126.20703125 C43.07472412 126.70195068 43.5644873 127.19687012 44.0690918 127.70678711 C48.79342654 132.46745706 53.57049746 136.99778311 58.71777344 141.3046875 C60.3844401 142.97135417 62.05110677 144.63802083 63.71777344 146.3046875 C65.21335322 147.62222207 66.71378311 148.93426192 68.21777344 150.2421875 C71.76586235 153.3635705 74.69840458 156.66596093 77.71777344 160.3046875 C80.90562153 163.28862206 84.24781322 166.08931833 87.61230469 168.87109375 C90.41699001 171.21138673 92.8098939 173.41570447 95.15527344 176.2421875 C97.74602171 179.33844762 100.48392071 181.7794332 103.54589844 184.38671875 C106.66720478 187.14312417 109.54599404 190.12122498 112.46386719 193.08984375 C115.27559559 195.85284202 118.24390616 198.38763904 121.28417969 200.89453125 C121.75726563 201.35988281 122.23035156 201.82523438 122.71777344 202.3046875 C122.71777344 202.9646875 122.71777344 203.6246875 122.71777344 204.3046875 C96.4493627 204.39805481 70.18097677 204.46862943 43.91243362 204.51193619 C31.71598012 204.53257713 19.5196296 204.56072705 7.32324219 204.60644531 C-3.3049111 204.64626611 -13.93298982 204.67210916 -24.56121564 204.68104148 C-30.19081428 204.68626427 -35.82019955 204.69857165 -41.44972992 204.72760773 C-46.74546774 204.75470158 -52.04090371 204.76314468 -57.33670425 204.75711823 C-59.28300999 204.75822116 -61.22932552 204.76621078 -63.17557144 204.7815094 C-65.82825736 204.80134305 -68.47979616 204.79665114 -71.13250732 204.78570557 C-72.29398761 204.80318262 -72.29398761 204.80318262 -73.47893214 204.82101274 C-77.06817958 204.78084262 -78.86370189 204.66952415 -81.61970901 202.26705551 C-82.16833981 201.61947407 -82.7169706 200.97189262 -83.28222656 200.3046875 C-86.14993876 200.33069971 -86.14993876 200.33069971 -89.28222656 201.3046875 C-90.51972656 201.62566406 -91.75722656 201.94664062 -93.03222656 202.27734375 C-93.71172363 202.45523438 -94.3912207 202.633125 -95.09130859 202.81640625 C-113.85816793 207.53426168 -134.56315375 207.61273219 -151.78222656 197.9296875 C-153.63270826 196.74778309 -155.46789163 195.54136422 -157.28222656 194.3046875 C-158.40564453 193.57765625 -158.40564453 193.57765625 -159.55175781 192.8359375 C-172.22438555 184.11290503 -180.12837493 168.42608518 -183.25195312 153.64428711 C-185.57822908 140.49860718 -186.24948889 125.32996651 -181.84082031 112.57421875 C-181.14422197 109.74398352 -181.35838805 108.06274907 -182.28222656 105.3046875 C-183.7558698 103.52617971 -183.7558698 103.52617971 -185.71972656 102.0546875 C-186.43644531 101.46429688 -187.15316406 100.87390625 -187.89160156 100.265625 C-189.07496094 99.29496094 -189.07496094 99.29496094 -190.28222656 98.3046875 C-195.42000744 93.77409891 -200.50187735 89.21423534 -205.28222656 84.3046875 C-208.72721403 80.77400383 -212.19193099 77.33933532 -215.95019531 74.140625 C-221.43854207 69.36655415 -226.47442579 64.16040296 -231.57128906 58.9765625 C-236.30325221 54.19581623 -241.15910163 49.66282736 -246.28222656 45.3046875 C-251.40475285 40.8817475 -255.95158216 36.52366921 -260.28222656 31.3046875 C-262.04165262 29.67821555 -263.85973732 28.1314978 -265.68066406 26.57421875 C-269.27179953 23.44141138 -272.78112518 20.22498324 -276.28222656 16.9921875 C-276.96591309 16.36892578 -277.64959961 15.74566406 -278.35400391 15.10351562 C-278.99031738 14.51376953 -279.62663086 13.92402344 -280.28222656 13.31640625 C-280.85972656 12.78490967 -281.43722656 12.25341309 -282.03222656 11.70581055 C-283.28222656 10.3046875 -283.28222656 10.3046875 -283.28222656 8.3046875 C-282.36285089 8.30506453 -281.44347521 8.30544155 -280.49623966 8.30583 C-258.1111419 8.31295148 -235.72629451 8.28701046 -213.34127903 8.2244091 C-202.51596099 8.19493004 -191.6908391 8.17658307 -180.86547852 8.18457031 C-171.42851124 8.19150478 -161.9918476 8.17742221 -152.55495495 8.13825142 C-147.55950756 8.11824624 -142.56453681 8.10866452 -137.56906319 8.12426376 C-132.86318527 8.1386263 -128.15821662 8.1248018 -123.45245552 8.08973503 C-121.72920347 8.08179296 -120.00586892 8.08398328 -118.28264999 8.09729576 C-108.75918264 8.16462185 -101.75243836 7.88270856 -94.28222656 1.3046875 C-66.28481018 -14.3419928 -27.22778162 -19.30070596 0 0 Z " fill="#5C61D6" transform="translate(285.2822265625,87.6953125)"/>
<path d="M0 0 C16.39582486 -0.03066564 32.79165037 -0.05099975 49.1875 -0.0625 C51.00520086 -0.06378403 51.00520086 -0.06378403 52.85962296 -0.06509399 C84.63902212 -0.08492491 116.41187576 -0.0184616 148.1875 0.5 C149.28774317 0.51793673 149.28774317 0.51793673 150.41021347 0.53623581 C158.94041487 0.67653221 167.47034359 0.82952336 176 1 C175 4 175 4 172.4375 5.3125 C170.7359375 6.1478125 170.7359375 6.1478125 169 7 C167.81098804 8.10253836 166.62359201 9.20682101 165.4375 10.3125 C162.73734107 12.39430192 161.43228163 12.9932806 157.984375 13.046875 C152.79364241 12.28425552 147.79563899 10.97558611 142.75 9.5625 C130.25857522 6.0946257 118.37937014 4.67403282 105.44732666 4.5262146 C104.0029956 4.50898341 102.55873238 4.48400511 101.11468506 4.45059204 C90.1225668 4.22483165 79.64351286 5.63090669 70.4375 12.25 C64.50546698 18.94255008 63.25866418 25.53581814 63.5625 34.39453125 C65.37724336 49.34996093 75.52150952 63.11150057 84.46875 74.828125 C86 77 86 77 87 80 C88.485 80.495 88.485 80.495 90 81 C91.5078125 82.56640625 91.5078125 82.56640625 93.125 84.5625 C96.43886677 88.48718543 100.06412048 91.77696769 103.9453125 95.12890625 C106 97 106 97 108.5 100.0625 C111.39544207 103.46464443 114.6020958 105.87329614 118.20703125 108.484375 C118.79871094 108.98453125 119.39039062 109.4846875 120 110 C120 110.66 120 111.32 120 112 C120.5259375 112.226875 121.051875 112.45375 121.59375 112.6875 C125.45904403 114.7958422 128.78386164 117.63798543 132.22265625 120.3671875 C135.03533662 122.5729554 137.70655983 124.57930032 141 126 C141 126.66 141 127.32 141 128 C141.804375 128.37125 141.804375 128.37125 142.625 128.75 C145.5823982 130.30652537 148.29724051 132.03435673 151 134 C151 134.66 151 135.32 151 136 C151.556875 136.12375 152.11375 136.2475 152.6875 136.375 C155.22114364 137.05976855 157.57921032 137.99133763 160 139 C160 139.66 160 140.32 160 141 C161.299375 141.3403125 161.299375 141.3403125 162.625 141.6875 C166.48723769 143.18948132 168.8322792 145.36023267 172 148 C175.21265916 149.32350658 175.21265916 149.32350658 178 150 C178 150.66 178 151.32 178 152 C179.98 152.33 181.96 152.66 184 153 C184 153.66 184 154.32 184 155 C186.97 155.99 186.97 155.99 190 157 C190 157.66 190 158.32 190 159 C191.134375 159.04125 192.26875 159.0825 193.4375 159.125 C198.08563132 159.6886574 200.89421961 161.73861231 204.62109375 164.44140625 C207.87354801 166.57232456 211.28502044 167.83878663 214.93359375 169.140625 C217 170 217 170 219 172 C220.98821313 172.39764263 222.98944339 172.73775349 225 173 C225 173.66 225 174.32 225 175 C226.0113501 175.11931885 227.0227002 175.2386377 228.06469727 175.36157227 C231.90624118 175.98478942 235.28827206 176.9540226 238.96484375 178.21484375 C239.60184708 178.4306459 240.2388504 178.64644806 240.89515686 178.86878967 C242.9112911 179.55259354 244.9245384 180.24441804 246.9375 180.9375 C265.45054113 187.27953831 282.28878684 190.14844109 301.875 190.3125 C302.99108643 190.33006348 304.10717285 190.34762695 305.25708008 190.36572266 C315.54409987 190.35810659 327.03257561 189.19281369 335 182 C340.76931282 174.75951241 341.67038442 168.09135364 341 159 C339.88606944 153.12305601 338.33251243 147.99876865 335 143 C334.28438667 141.50345943 333.57715567 140.0029017 332.875 138.5 C326.8258286 126.38370713 318.35556684 116.63651479 309 107 C308.43023437 106.40445313 307.86046875 105.80890625 307.2734375 105.1953125 C305.98863292 103.87512357 305.98863292 103.87512357 304 103 C302.96210419 101.35666496 301.96432076 99.68756133 301 98 C300.34 97.01 299.68 96.02 299 95 C304.8897686 97.49182518 309.72673573 102.349683 314 107 C314 107.66 314 108.32 314 109 C314.8353125 109.0928125 314.8353125 109.0928125 315.6875 109.1875 C318.97445417 110.34237579 320.58493674 112.49831323 323 115 C323.95417354 115.96898223 324.90993841 116.93639971 325.8671875 117.90234375 C326.35695068 118.39726318 326.84671387 118.89218262 327.35131836 119.40209961 C332.0756531 124.16276956 336.85272402 128.69309561 342 133 C343.66666667 134.66666667 345.33333333 136.33333333 347 138 C348.49557979 139.31753457 349.99600967 140.62957442 351.5 141.9375 C355.04808891 145.058883 357.98063114 148.36127343 361 152 C364.18784809 154.98393456 367.53003979 157.78463083 370.89453125 160.56640625 C373.69921657 162.90669923 376.09212047 165.11101697 378.4375 167.9375 C381.02824827 171.03376012 383.76614727 173.4747457 386.828125 176.08203125 C389.94943134 178.83843667 392.8282206 181.81653748 395.74609375 184.78515625 C398.55782215 187.54815452 401.52613272 190.08295154 404.56640625 192.58984375 C405.03949219 193.05519531 405.51257813 193.52054688 406 194 C406 194.66 406 195.32 406 196 C379.73158926 196.09336731 353.46320333 196.16394193 327.19466019 196.20724869 C314.99820668 196.22788963 302.80185616 196.25603955 290.60546875 196.30175781 C279.97731546 196.34157861 269.34923674 196.36742166 258.72101092 196.37635398 C253.09141228 196.38157677 247.46202702 196.39388415 241.83249664 196.42292023 C236.53675883 196.45001408 231.24132285 196.45845718 225.94552231 196.45243073 C223.99921658 196.45353366 222.05290104 196.46152328 220.10665512 196.4768219 C217.45396921 196.49665555 214.80243041 196.49196364 212.14971924 196.48101807 C210.98823895 196.49849512 210.98823895 196.49849512 209.80329442 196.51632524 C206.21404699 196.47615512 204.41852467 196.36483665 201.66251755 193.96236801 C201.11388676 193.31478657 200.56525597 192.66720512 200 192 C197.1322878 192.02601221 197.1322878 192.02601221 194 193 C192.7625 193.32097656 191.525 193.64195312 190.25 193.97265625 C189.57050293 194.15054688 188.89100586 194.3284375 188.19091797 194.51171875 C169.42405864 199.22957418 148.71907281 199.30804469 131.5 189.625 C129.6495183 188.44309559 127.81433493 187.23667672 126 186 C124.87658203 185.27296875 124.87658203 185.27296875 123.73046875 184.53125 C111.05784102 175.80821753 103.15385164 160.12139768 100.03027344 145.33959961 C97.70399748 132.19391968 97.03273767 117.02527901 101.44140625 104.26953125 C102.13800459 101.43929602 101.92383851 99.75806157 101 97 C99.52635676 95.22149221 99.52635676 95.22149221 97.5625 93.75 C96.84578125 93.15960938 96.1290625 92.56921875 95.390625 91.9609375 C94.20726563 90.99027344 94.20726563 90.99027344 93 90 C87.86221912 85.46941141 82.78034921 80.90954784 78 76 C74.55501254 72.46931633 71.09029558 69.03464782 67.33203125 65.8359375 C61.84368449 61.06186665 56.80780077 55.85571546 51.7109375 50.671875 C46.97897436 45.89112873 42.12312494 41.35813986 37 37 C31.87747371 32.57706 27.3306444 28.21898171 23 23 C21.24057394 21.37352805 19.42248925 19.8268103 17.6015625 18.26953125 C14.01042703 15.13672388 10.50110138 11.92029574 7 8.6875 C6.31631348 8.06423828 5.63262695 7.44097656 4.92822266 6.79882812 C4.29190918 6.20908203 3.6555957 5.61933594 3 5.01171875 C2.4225 4.48022217 1.845 3.94872559 1.25 3.40112305 C0 2 0 2 0 0 Z " fill="#271B1B" transform="translate(2,96)"/>
<path d="M0 0 C4.75 0.75 4.75 0.75 7 3 C7 3.99 7 4.98 7 6 C7.73605469 6.22558594 8.47210938 6.45117188 9.23046875 6.68359375 C12.61265162 8.29120394 14.0366989 10.10437462 16.3125 13.0625 C19.08973727 16.61093704 21.89013995 19.99116462 25 23.25 C31.96477279 30.98243312 37.06754893 40.41536708 41 50 C41.53625 51.19625 42.0725 52.3925 42.625 53.625 C45.61736831 60.96990403 46.40066483 69.62843496 43.875 77.25 C40.83086553 84.12748899 36.53599028 88.27151647 29.63671875 91.17578125 C21.37451094 93.75848621 13.71370171 94.32259664 5.0625 94.25 C3.86391357 94.24105713 2.66532715 94.23211426 1.43041992 94.22290039 C-22.08407707 93.91796873 -43.05758933 88.38292802 -65 80 C-65 79.01 -65 78.02 -65 77 C-63.05078125 75.34375 -63.05078125 75.34375 -60.3125 73.5 C-38.81401455 58.40414436 -19.83613052 38.67226104 -8 15 C-7.34 15 -6.68 15 -6 15 C-5.88785156 14.28457031 -5.77570313 13.56914062 -5.66015625 12.83203125 C-4.95543995 9.80884002 -3.86712202 7.43677312 -2.4375 4.6875 C-1.98246094 3.80449219 -1.52742188 2.92148438 -1.05859375 2.01171875 C-0.53458984 1.01591797 -0.53458984 1.01591797 0 0 Z " fill="#F9F8F7" transform="translate(299,193)"/>
<path d="M0 0 C1.08308441 0.0068129 1.08308441 0.0068129 2.18804932 0.01376343 C14.83762629 0.10682895 26.87976225 1.48170748 39.1875 4.5 C40.97220703 4.90992187 40.97220703 4.90992187 42.79296875 5.328125 C47.37534164 6.46615156 51.30966939 7.69191576 55.1875 10.5 C51.67698335 14.84635395 48.06648651 18.64207388 43.703125 22.140625 C41.92837049 23.6188998 41.92837049 23.6188998 40.1875 26.5 C39.5275 26.5 38.8675 26.5 38.1875 26.5 C37.91679687 27.09167969 37.64609375 27.68335937 37.3671875 28.29296875 C36.20462527 30.467961 34.97674083 32.00597952 33.3125 33.8125 C31.23262099 36.16498451 29.55596183 38.4257809 28.0625 41.1875 C26.1875 44.5 26.1875 44.5 24.37109375 46.22265625 C21.4573517 49.26149635 19.48467604 52.62295959 17.375 56.25 C16.93921631 56.99644775 16.50343262 57.74289551 16.05444336 58.51196289 C10.10031235 68.91499782 5.12922204 79.84517746 2.1875 91.5 C-1.50154311 91.5 -2.36381487 90.30952637 -4.88525391 87.79394531 C-5.39749512 87.26381836 -5.90973633 86.73369141 -6.4375 86.1875 C-6.97165527 85.64061523 -7.50581055 85.09373047 -8.05615234 84.53027344 C-19.95190798 72.20369277 -29.78176231 58.16196852 -36.8125 42.5 C-37.12960938 41.87609375 -37.44671875 41.2521875 -37.7734375 40.609375 C-41.01999635 33.52055843 -41.1171161 25.00575747 -38.96875 17.5859375 C-35.440013 9.69396489 -29.90147239 5.56713034 -22.02734375 2.3671875 C-14.78506172 -0.18218248 -7.57268609 -0.1103344 0 0 Z " fill="#F8F8F7" transform="translate(104.8125,99.5)"/>
<path d="M0 0 C4.18798558 3.51211471 8.13353361 7.13353361 12 11 C13.47020772 12.31021037 14.94472725 13.61558767 16.421875 14.91796875 C20.34881102 18.44088586 24.13240801 22.06278759 27.83984375 25.8125 C28.33801102 26.31617599 28.83617828 26.81985199 29.34944153 27.33879089 C31.3922824 29.40900577 33.4313855 31.48280743 35.46557617 33.56152344 C41.58802901 39.80848412 47.76078609 45.66480156 54.6394043 51.08691406 C58.01525945 53.82279171 60.9978914 56.868614 64 60 C65.66528983 61.66804237 67.33209831 63.33456927 69 65 C69.86238281 65.87398438 70.72476563 66.74796875 71.61328125 67.6484375 C76.27851537 72.36093159 80.96396449 76.98553604 86.0078125 81.296875 C88.36636752 83.31320831 90.68322864 85.37333611 93 87.4375 C93.763125 88.11683594 94.52625 88.79617188 95.3125 89.49609375 C95.869375 89.99238281 96.42625 90.48867188 97 91 C93.51625689 92.93252416 89.95022066 93.98074405 86.125 95.0625 C84.33449219 95.57490234 84.33449219 95.57490234 82.5078125 96.09765625 C64.93152731 100.6189501 44.46812654 99.60458238 28.5 90.625 C26.6495183 89.44309559 24.81433493 88.23667672 23 87 C22.25105469 86.5153125 21.50210938 86.030625 20.73046875 85.53125 C8.06710343 76.81459319 0.13222594 61.1147127 -2.9675293 46.33300781 C-5.69283921 30.8335221 -5.33418927 14.85952724 0 0 Z " fill="#5C60D5" transform="translate(105,195)"/>
<path d="M0 0 C3.14335117 1.74630621 5.32056924 3.61848498 7.56640625 6.42578125 C8.28828125 7.27140625 9.01015625 8.11703125 9.75390625 8.98828125 C15.30701707 16.45625788 15.34249924 25.38984141 14.56640625 34.42578125 C12.34428189 42.44416977 5.96597648 49.30686605 -1.12109375 53.36328125 C-8.32655717 57.1387905 -16.23501505 57.59508907 -24.16015625 55.8125 C-31.42514169 53.2596336 -37.00702039 48.77251265 -40.78125 42.01171875 C-45.02620893 32.66976612 -45.53915978 22.47317807 -42.578125 12.5625 C-41.55859375 10.42578125 -41.55859375 10.42578125 -39.43359375 7.42578125 C-38.44359375 7.09578125 -37.45359375 6.76578125 -36.43359375 6.42578125 C-36.43359375 5.76578125 -36.43359375 5.10578125 -36.43359375 4.42578125 C-34.78359375 3.76578125 -33.13359375 3.10578125 -31.43359375 2.42578125 C-31.43359375 1.76578125 -31.43359375 1.10578125 -31.43359375 0.42578125 C-20.45026133 -5.01728614 -11.16241976 -5.16643939 0 0 Z " fill="#251816" transform="translate(219.43359375,8.57421875)"/>
<path d="M0 0 C5.8897686 2.49182518 10.72673573 7.349683 15 12 C15 12.66 15 13.32 15 14 C15.556875 14.061875 16.11375 14.12375 16.6875 14.1875 C19.97445417 15.34237579 21.58493674 17.49831323 24 20 C24.95417354 20.96898223 25.90993841 21.93639971 26.8671875 22.90234375 C27.35695068 23.39726318 27.84671387 23.89218262 28.35131836 24.40209961 C33.0756531 29.16276956 37.85272402 33.69309561 43 38 C44.66666667 39.66666667 46.33333333 41.33333333 48 43 C49.49557979 44.31753457 50.99600967 45.62957442 52.5 46.9375 C56.04808891 50.058883 58.98063114 53.36127343 62 57 C65.18784809 59.98393456 68.53003979 62.78463083 71.89453125 65.56640625 C74.69921657 67.90669923 77.09212047 70.11101697 79.4375 72.9375 C82.02711135 76.03240137 84.76318016 78.47249516 87.82421875 81.078125 C90.96987786 83.85669642 93.8715159 86.85951965 96.8125 89.8515625 C98.82369129 91.82683966 100.89095431 93.64247231 103.0625 95.4375 C104.031875 96.283125 105.00125 97.12875 106 98 C106 98.66 106 99.32 106 100 C95.67296321 100.06956765 85.34598234 100.12284568 75.01875877 100.15543652 C70.22319628 100.17107997 65.42779433 100.19229416 60.63232422 100.22631836 C56.00280813 100.25895885 51.3734463 100.27686295 46.74382401 100.28463173 C44.97920937 100.29016681 43.21460299 100.30097554 41.45005417 100.31719017 C38.97481922 100.33902695 36.50021841 100.34196434 34.02490234 100.34057617 C33.29841492 100.351362 32.57192749 100.36214783 31.82342529 100.3732605 C27.15018945 100.34497616 24.01102996 99.37394436 20 97 C20 96.67 20 96.34 20 96 C21.051875 95.7525 22.10375 95.505 23.1875 95.25 C26.85055986 94.20341147 29.14281661 92.55642724 32 90 C32.845625 89.401875 33.69125 88.80375 34.5625 88.1875 C39.2121993 84.01469294 41.6787995 78.8111675 42.203125 72.58984375 C42.36025744 63.69876662 41.00084415 55.50126623 36 48 C35.28438667 46.50345943 34.57715567 45.0029017 33.875 43.5 C27.8258286 31.38370713 19.35556684 21.63651479 10 12 C9.43023437 11.40445313 8.86046875 10.80890625 8.2734375 10.1953125 C6.98863292 8.87512357 6.98863292 8.87512357 5 8 C3.96210419 6.35666496 2.96432076 4.68756133 2 3 C1.34 2.01 0.68 1.02 0 0 Z " fill="#291C1B" transform="translate(301,191)"/>
<path d="M0 0 C16.39582486 -0.03066564 32.79165037 -0.05099975 49.1875 -0.0625 C51.00520086 -0.06378403 51.00520086 -0.06378403 52.85962296 -0.06509399 C84.63902212 -0.08492491 116.41187576 -0.0184616 148.1875 0.5 C149.28774317 0.51793673 149.28774317 0.51793673 150.41021347 0.53623581 C158.94041487 0.67653221 167.47034359 0.82952336 176 1 C175 4 175 4 172.4375 5.3125 C170.7359375 6.1478125 170.7359375 6.1478125 169 7 C167.81098804 8.10253836 166.62359201 9.20682101 165.4375 10.3125 C162.73734107 12.39430192 161.43228163 12.9932806 157.984375 13.046875 C151.91921345 12.15578491 146.08113146 10.509524 140.19433594 8.8359375 C127.08217985 5.40456923 114.55200323 4.63220761 101.0625 4.9375 C98.62944064 4.98546224 96.19662596 5.02860606 93.76329041 5.05970764 C92.26845973 5.07937398 90.77371686 5.10889959 89.27931213 5.14964294 C87.51902667 5.175646 85.75781977 5.09669916 84 5 C83.01 4.01 83.01 4.01 82 3 C82.33 2.67 82.66 2.34 83 2 C82.00441574 2 81.00883148 2 79.983078 2 C53.322052 2 26.661026 2 0 2 C0 1.34 0 0.68 0 0 Z " fill="#2E2524" transform="translate(2,96)"/>
<path d="M0 0 C5.8897686 2.49182518 10.72673573 7.349683 15 12 C15 12.66 15 13.32 15 14 C15.556875 14.061875 16.11375 14.12375 16.6875 14.1875 C19.97445417 15.34237579 21.58493674 17.49831323 24 20 C24.95417354 20.96898223 25.90993841 21.93639971 26.8671875 22.90234375 C27.35695068 23.39726318 27.84671387 23.89218262 28.35131836 24.40209961 C33.0756531 29.16276956 37.85272402 33.69309561 43 38 C47.79166667 42.58333333 47.79166667 42.58333333 49 45 C48.34 45 47.68 45 47 45 C46.505 45.99 46.505 45.99 46 47 C45.34 46.34 44.68 45.68 44 45 C41.20127563 47.52788007 39.54226981 49.20411134 39 53 C37.0502598 49.92146284 35.42372828 46.79037773 33.875 43.5 C27.8258286 31.38370713 19.35556684 21.63651479 10 12 C9.43023437 11.40445313 8.86046875 10.80890625 8.2734375 10.1953125 C6.98863292 8.87512357 6.98863292 8.87512357 5 8 C3.96210419 6.35666496 2.96432076 4.68756133 2 3 C1.34 2.01 0.68 1.02 0 0 Z " fill="#382D2D" transform="translate(301,191)"/>
<path d="M0 0 C-2.62198774 2.15377564 -4.64404172 3.40072174 -8 4 C-4.22873035 6.46715791 -0.45459195 6.26909153 3.88964844 6.22705078 C4.68027176 6.22734283 5.47089508 6.22763489 6.28547668 6.22793579 C8.8935552 6.22654467 11.50134651 6.21099379 14.109375 6.1953125 C15.91969649 6.19158159 17.73002 6.18873499 19.54034424 6.18673706 C24.30134675 6.17910672 29.06222692 6.15946334 33.82318115 6.1373291 C38.68288518 6.1168578 43.54260901 6.10773259 48.40234375 6.09765625 C57.93494953 6.07621691 67.46746459 6.04208815 77 6 C77 6.66 77 7.32 77 8 C10.34 8 -56.32 8 -125 8 C-125 7.67 -125 7.34 -125 7 C-90.02 6.67 -55.04 6.34 -19 6 C-26.92 5.34 -34.84 4.68 -43 4 C-44.98 3.67 -46.96 3.34 -49 3 C-49 2.67 -49 2.34 -49 2 C-48.00258789 2.01571045 -47.00517578 2.0314209 -45.97753906 2.04760742 C-42.22029943 2.10256507 -38.46309406 2.13658525 -34.70556641 2.16479492 C-33.08994542 2.17973355 -31.4743639 2.20009201 -29.85888672 2.22631836 C-20.90371469 2.36789113 -12.82882335 2.24594142 -4.17871094 -0.44799805 C-2 -1 -2 -1 0 0 Z " fill="#6A6162" transform="translate(331,284)"/>
<path d="M0 0 C6.33207955 4.3996738 11.64915173 9.46810799 17 15 C18.33103647 16.33562625 19.66366029 17.66967984 21 19 C18.12605502 19.81639318 15.2509487 20.62822141 12.375 21.4375 C11.56675781 21.66759766 10.75851563 21.89769531 9.92578125 22.13476562 C-6.37408013 26.70667796 -27.47039776 28.01510374 -42.99267578 19.96679688 C-44.67942057 19.00825586 -46.3422147 18.00779796 -48 17 C-46.375 15.875 -46.375 15.875 -44 15 C-40.8125 15.75 -40.8125 15.75 -38 17 C-37.67 17.66 -37.34 18.32 -37 19 C-25.35691712 22.81046349 -8.84620806 22.47120516 2.9921875 19.5 C5.24445234 18.93912471 7.44206857 18.67508118 9.75 18.4375 C10.94882813 18.31181641 10.94882813 18.31181641 12.171875 18.18359375 C13.07679688 18.09271484 13.07679688 18.09271484 14 18 C12.9893322 14.96799661 12.36506843 14.00121175 10 12 C9.01 11.67 8.02 11.34 7 11 C6.71125 10.195625 6.4225 9.39125 6.125 8.5625 C5.22055781 5.76071559 5.22055781 5.76071559 2.375 4.6875 C1.59125 4.460625 0.8075 4.23375 0 4 C0 2.68 0 1.36 0 0 Z " fill="#6265B2" transform="translate(181,268)"/>
<path d="M0 0 C6.88365357 5.77274694 12.35357036 10.67901206 16 19 C16.42539062 19.95777344 16.85078125 20.91554688 17.2890625 21.90234375 C26.18341986 42.5258098 25.79200436 63.59026961 20 85 C19.67 85 19.34 85 19 85 C19.0721875 84.25621094 19.144375 83.51242188 19.21875 82.74609375 C19.90135139 74.71604687 20.11001637 66.74432411 20.125 58.6875 C20.12951172 57.65488037 20.13402344 56.62226074 20.13867188 55.55834961 C20.13673828 54.59421143 20.13480469 53.63007324 20.1328125 52.63671875 C20.13168457 51.76748779 20.13055664 50.89825684 20.12939453 50.00268555 C20.22131372 48.00129905 20.22131372 48.00129905 19 47 C18.9181065 44.81314016 18.86040952 42.62536818 18.8125 40.4375 C18.37534602 30.26654927 14.69941902 20.9674904 10 12 C9.01 12 8.02 12 7 12 C4.86209519 10.11361341 3.27855912 8.55711823 2 6 C1.01 5.67 0.02 5.34 -1 5 C-0.67 3.35 -0.34 1.7 0 0 Z " fill="#6E70B6" transform="translate(286,89)"/>
<path d="M0 0 C0.66 0 1.32 0 2 0 C2 1.32 2 2.64 2 4 C1.34 4 0.68 4 0 4 C0.15726562 4.93457031 0.31453125 5.86914062 0.4765625 6.83203125 C1.04888473 10.82925018 1.173716 14.79726109 1.29125977 18.82983398 C1.53284399 27.07398378 1.99631489 34.68393732 4.3671875 42.63671875 C5.23336413 45.87151418 5.22667792 48.67539044 5 52 C5.66 52 6.32 52 7 52 C7.20753906 52.556875 7.41507813 53.11375 7.62890625 53.6875 C9.83957706 59.16330385 12.47724494 63.05449798 16.609375 67.2734375 C18 69 18 69 18 72 C18.66 72 19.32 72 20 72 C20 72.66 20 73.32 20 74 C20.804375 74.28875 21.60875 74.5775 22.4375 74.875 C25 76 25 76 26 78 C27.485 78.495 27.485 78.495 29 79 C28.67 79.99 28.34 80.98 28 82 C13.29818255 72.90174412 3.52074302 58.34750657 -0.5 41.5625 C-3.32522148 28.31288325 -3.87324666 13.04509475 0 0 Z " fill="#6669BE" transform="translate(103,202)"/>
<path d="M0 0 C3.32845439 4.01736705 6.24721297 8.22020117 9.125 12.5625 C9.56714844 13.22185547 10.00929688 13.88121094 10.46484375 14.56054688 C12.1791281 17.13715251 13.81027553 19.59202606 15.1171875 22.40234375 C15.96629075 24.36510153 15.96629075 24.36510153 19 25 C20.61328125 26.63671875 20.61328125 26.63671875 22.3125 28.6875 C25.38656536 32.31751335 28.59601162 35.67903572 32 39 C31.67 39.99 31.34 40.98 31 42 C30.3709375 41.43152344 29.741875 40.86304688 29.09375 40.27734375 C24.98450874 36.57036255 20.87078879 32.87338398 16.6875 29.25 C13.66300223 26.61186522 10.80418931 23.87429404 8 21 C6.66803209 19.66530264 5.33457769 18.33208781 4 17 C1 14 -2 11 -5 8 C-4.34 7.67 -3.68 7.34 -3 7 C-2.67 6.01 -2.34 5.02 -2 4 C-1.34 4 -0.68 4 0 4 C0 2.68 0 1.36 0 0 Z " fill="#322A2A" transform="translate(73,152)"/>
<path d="M0 0 C0.99 0.495 0.99 0.495 2 1 C0.71034824 2.37562854 -0.62689293 3.70766393 -2 5 C-2.66 5 -3.32 5 -4 5 C-4.33 5.99 -4.66 6.98 -5 8 C-7.31074405 8.74118205 -9.64811553 9.40206327 -12 10 C-14.2857711 10.76603959 -14.2857711 10.76603959 -16 12 C-16.268125 12.680625 -16.53625 13.36125 -16.8125 14.0625 C-17.204375 14.701875 -17.59625 15.34125 -18 16 C-20.33333333 16.33333333 -22.66666667 16.66666667 -25 17 C-26.39238047 18.86747263 -26.39238047 18.86747263 -27 21 C-30.36569395 24.36569395 -34.40086993 25.2115777 -39 26 C-39 25.34 -39 24.68 -39 24 C-39.99 23.34 -40.98 22.68 -42 22 C-40.948125 22.0825 -39.89625 22.165 -38.8125 22.25 C-34.30010028 21.95410494 -33.28969238 20.96072314 -30 18 C-23.7972973 14 -23.7972973 14 -21 14 C-21 13.34 -21 12.68 -21 12 C-54.66 11.505 -54.66 11.505 -89 11 C-89 10.67 -89 10.34 -89 10 C-88.10543594 10.00079559 -87.21087189 10.00159119 -86.28919983 10.00241089 C-77.82992955 10.00462507 -69.37133317 9.97805755 -60.91225529 9.9197216 C-56.56399889 9.89073498 -52.21627884 9.87260754 -47.86791992 9.87988281 C-43.66591519 9.88650392 -39.46496767 9.86383504 -35.26318169 9.82144547 C-33.66578374 9.81036335 -32.06827793 9.80956972 -30.47087288 9.81957626 C-21.01008297 9.87121123 -14.51299876 9.28618876 -7 3 C-4.67971398 1.73565242 -2.5091115 0.87050807 0 0 Z " fill="#736F9B" transform="translate(198,86)"/>
<path d="M0 0 C3.39762409 1.13254136 4.24926077 2.50944295 6.39453125 5.2421875 C8.99160084 8.08569435 12.09751495 10.23213154 15.20703125 12.484375 C16.09455078 13.23460937 16.09455078 13.23460937 17 14 C17 14.66 17 15.32 17 16 C17.5259375 16.226875 18.051875 16.45375 18.59375 16.6875 C22.45904403 18.7958422 25.78386164 21.63798543 29.22265625 24.3671875 C32.03533662 26.5729554 34.70655983 28.57930032 38 30 C38 30.66 38 31.32 38 32 C38.99 32.33 39.98 32.66 41 33 C40.0409375 33.680625 40.0409375 33.680625 39.0625 34.375 C36.90297594 35.83921726 36.90297594 35.83921726 36 38 C35.52691406 37.52167725 35.05382812 37.04335449 34.56640625 36.55053711 C32.38035594 34.3434466 30.19020871 32.14046367 28 29.9375 C27.25621094 29.18533203 26.51242188 28.43316406 25.74609375 27.65820312 C21.53100586 23.42478877 17.2403923 19.35854385 12.69604492 15.47949219 C10.35034986 13.43329785 8.20034804 11.20034804 6 9 C5.0925 8.34 4.185 7.68 3.25 7 C0.64851404 4.68756804 0.28388934 3.40667209 0 0 Z " fill="#252250" transform="translate(105,192)"/>
<path d="M0 0 C3.14290089 1.40695563 5.4100843 3.11027565 7.9375 5.4375 C10.81616809 8.01652978 13.58879176 10.14820124 17 12 C17.99 12.66 18.98 13.32 20 14 C20 14.66 20 15.32 20 16 C20.99 15.67 21.98 15.34 23 15 C23 15.99 23 16.98 23 18 C23.66 18 24.32 18 25 18 C25.33 18.99 25.66 19.98 26 21 C27.32407669 21.68486725 28.65909241 22.34870203 30 23 C32.25 24.9375 32.25 24.9375 34 27 C34 27.99 34 28.98 34 30 C34.99 30.33 35.98 30.66 37 31 C37 31.66 37 32.32 37 33 C37.99 33 38.98 33 40 33 C40.804375 33.969375 41.60875 34.93875 42.4375 35.9375 C44.79532628 39.36561306 44.79532628 39.36561306 49 40 C49.66 42.64 50.32 45.28 51 48 C43.66944317 42.96922571 37.67360716 36.85818852 31.49023438 30.52197266 C30.10329727 29.10549724 28.70256532 27.70256532 27.30078125 26.30078125 C25.97781268 24.97781268 24.66198391 23.64742819 23.3671875 22.296875 C19.94504708 18.74931583 16.3397239 15.5928187 12.5 12.5 C8.07087431 8.9322629 3.74719855 5.29712871 0 1 C0 0.67 0 0.34 0 0 Z " fill="#2A2148" transform="translate(142,230)"/>
<path d="M0 0 C3.63 0.33 7.26 0.66 11 1 C11 1.99 11 2.98 11 4 C11.969375 4.0825 12.93875 4.165 13.9375 4.25 C18.67119101 4.8999125 22.73984407 6.92305323 27 9 C27 9.66 27 10.32 27 11 C28.134375 11.12375 29.26875 11.2475 30.4375 11.375 C31.613125 11.58125 32.78875 11.7875 34 12 C34.495 12.99 34.495 12.99 35 14 C39.70095261 16.72958539 44.74719188 16.18359329 50 16 C47.875 18.5625 47.875 18.5625 45 21 C41.6875 20.8125 41.6875 20.8125 39 20 C39 19.34 39 18.68 39 18 C38.175 18.103125 37.35 18.20625 36.5 18.3125 C32.34237058 17.94128309 30.39543113 16.59135425 27.01171875 14.296875 C24.17744721 12.46973296 21.09717416 11.31916677 18 10 C17.030625 9.319375 16.06125 8.63875 15.0625 7.9375 C11.35008855 5.58883153 8.28166935 4.88586262 4 4 C4 3.34 4 2.68 4 2 C2.68 1.67 1.36 1.34 0 1 C0 0.67 0 0.34 0 0 Z " fill="#5A5AB1" transform="translate(188,251)"/>
<path d="M0 0 C35.31 0 70.62 0 107 0 C107 0.33 107 0.66 107 1 C102.05 1.33 97.1 1.66 92 2 C99.59 2.33 107.18 2.66 115 3 C115 3.33 115 3.66 115 4 C110.62218616 4.19218929 106.24409441 4.37092139 101.86523438 4.53710938 C100.37517512 4.59556854 98.88525624 4.65772629 97.39550781 4.72363281 C95.25611936 4.81764056 93.11658132 4.89840682 90.9765625 4.9765625 C89.04417725 5.05511475 89.04417725 5.05511475 87.07275391 5.13525391 C84 5 84 5 82 3 C82.33 2.67 82.66 2.34 83 2 C82.00441574 2 81.00883148 2 79.983078 2 C53.322052 2 26.661026 2 0 2 C0 1.34 0 0.68 0 0 Z " fill="#3D3534" transform="translate(2,96)"/>
<path d="M0 0 C3.61941735 1.50239966 6.7321794 2.82145293 10 5 C10 5.66 10 6.32 10 7 C10.556875 7.12375 11.11375 7.2475 11.6875 7.375 C14.22114364 8.05976855 16.57921032 8.99133763 19 10 C19 10.66 19 11.32 19 12 C19.886875 12.226875 20.77375 12.45375 21.6875 12.6875 C25.43380532 14.17188513 27.33729434 16.02403485 30 19 C28.68 19.33 27.36 19.66 26 20 C25.34 18.68 24.68 17.36 24 16 C23.2575 16.04125 22.515 16.0825 21.75 16.125 C18.91241048 15.99601866 17.41226062 15.42948778 15 14 C14.67 14.66 14.34 15.32 14 16 C8.43727121 13.6935027 5.0354956 10.29931734 1 6 C0.00342658 4.99658512 -0.99545806 3.99543733 -2 3 C-1.34 2.67 -0.68 2.34 0 2 C0 1.34 0 0.68 0 0 Z " fill="#22192F" transform="translate(143,225)"/>
<path d="M0 0 C1.49609225 0.00502697 2.99218613 0.00958775 4.48828125 0.01367188 C8.11722219 0.02457815 11.74610027 0.04177618 15.375 0.0625 C15.375 0.7225 15.375 1.3825 15.375 2.0625 C16.1175 1.711875 16.86 1.36125 17.625 1 C20.56667576 -0.00284401 21.55303942 -0.06628423 24.375 1.0625 C25.365 1.7225 26.355 2.3825 27.375 3.0625 C27.375 3.7225 27.375 4.3825 27.375 5.0625 C28.695 5.0625 30.015 5.0625 31.375 5.0625 C31.87 6.5475 31.87 6.5475 32.375 8.0625 C31.67375 7.86914062 30.9725 7.67578125 30.25 7.4765625 C29.30125 7.21617188 28.3525 6.95578125 27.375 6.6875 C26.446875 6.43226562 25.51875 6.17703125 24.5625 5.9140625 C23.510625 5.63304688 22.45875 5.35203125 21.375 5.0625 C20.1890625 4.70671875 19.003125 4.3509375 17.78125 3.984375 C12.20579273 2.61034746 6.58868457 2.68044709 0.875 2.6875 C-0.27323242 2.68693604 -1.42146484 2.68637207 -2.60449219 2.68579102 C-11.90248204 2.80538141 -19.77623869 4.34902516 -28.625 7.0625 C-30.61918666 7.42901148 -32.61809598 7.77362745 -34.625 8.0625 C-34.625 7.4025 -34.625 6.7425 -34.625 6.0625 C-31.985 5.4025 -29.345 4.7425 -26.625 4.0625 C-26.625 3.0725 -26.625 2.0825 -26.625 1.0625 C-17.73820844 -0.05053997 -8.9362711 -0.05258965 0 0 Z " fill="#DBDDF6" transform="translate(242.625,73.9375)"/>
<path d="M0 0 C4.18798558 3.51211471 8.13353361 7.13353361 12 11 C13.59885242 12.44340843 15.20365617 13.88023659 16.8125 15.3125 C21.35687305 19.37995234 25.8836418 23.49270276 30 28 C30 28.33 30 28.66 30 29 C28.02 29 26.04 29 24 29 C23.34 27.68 22.68 26.36 22 25 C21.34 25 20.68 25 20 25 C17 20.61538462 17 20.61538462 17 18 C16.01 18 15.02 18 14 18 C13.67 16.68 13.34 15.36 13 14 C10.36 13.67 7.72 13.34 5 13 C4.34 11.02 3.68 9.04 3 7 C1.68 7 0.36 7 -1 7 C-0.67 4.69 -0.34 2.38 0 0 Z " fill="#5858AC" transform="translate(105,195)"/>
<path d="M0 0 C0.74886475 0.00523682 1.49772949 0.01047363 2.26928711 0.01586914 C3.07817383 0.0190918 3.88706055 0.02231445 4.72045898 0.02563477 C5.5705957 0.03401367 6.42073242 0.04239258 7.29663086 0.05102539 C8.15063477 0.05553711 9.00463867 0.06004883 9.88452148 0.06469727 C12.00108749 0.07652166 14.11761771 0.0944577 16.23413086 0.11352539 C15.23413086 3.11352539 15.23413086 3.11352539 12.67163086 4.42602539 C11.53725586 4.98290039 10.40288086 5.53977539 9.23413086 6.11352539 C7.93224752 7.18455931 6.64106765 8.26869574 5.35913086 9.36352539 C3.08311922 11.1474264 1.84901151 12.06945545 -1.05493164 12.27758789 C-3.26586914 11.98852539 -3.26586914 11.98852539 -6.76586914 11.11352539 C-4.27633993 8.44617266 -2.1317878 6.55606196 1.23413086 5.11352539 C-0.08586914 3.79352539 -1.40586914 2.47352539 -2.76586914 1.11352539 C-1.76586914 0.11352539 -1.76586914 0.11352539 0 0 Z " fill="#261C2B" transform="translate(161.765869140625,96.886474609375)"/>
<path d="M0 0 C-2.62198774 2.15377564 -4.64404172 3.40072174 -8 4 C-6.68 4.99 -5.36 5.98 -4 7 C-8.95 7 -13.9 7 -19 7 C-19 6.67 -19 6.34 -19 6 C-19.69561035 5.94465088 -20.3912207 5.88930176 -21.10791016 5.83227539 C-24.28049178 5.57833145 -27.45274183 5.32045179 -30.625 5.0625 C-31.71941406 4.97548828 -32.81382812 4.88847656 -33.94140625 4.79882812 C-35.00488281 4.71181641 -36.06835938 4.62480469 -37.1640625 4.53515625 C-38.62513428 4.41732788 -38.62513428 4.41732788 -40.11572266 4.29711914 C-43.10561134 3.98912062 -46.04095922 3.52387687 -49 3 C-49 2.67 -49 2.34 -49 2 C-48.00258789 2.01571045 -47.00517578 2.0314209 -45.97753906 2.04760742 C-42.22029943 2.10256507 -38.46309406 2.13658525 -34.70556641 2.16479492 C-33.08994542 2.17973355 -31.4743639 2.20009201 -29.85888672 2.22631836 C-20.90371469 2.36789113 -12.82882335 2.24594142 -4.17871094 -0.44799805 C-2 -1 -2 -1 0 0 Z " fill="#5B5253" transform="translate(331,284)"/>
<path d="M0 0 C4.39851536 0.42912345 7.38337185 1.64461638 11.1328125 3.9609375 C13.1284963 5.07150631 15.08571669 5.77857223 17.25 6.5 C20.58212458 7.68590121 22.28735407 8.77619589 24 12 C24.33 12.99 24.66 13.98 25 15 C28.51190809 16.22969878 28.51190809 16.22969878 32 17 C32 17.66 32 18.32 32 19 C33.98 19.33 35.96 19.66 38 20 C38 20.99 38 21.98 38 23 C37.34 23 36.68 23 36 23 C36 22.34 36 21.68 36 21 C34.02 20.67 32.04 20.34 30 20 C30 19.34 30 18.68 30 18 C29.13375 17.938125 28.2675 17.87625 27.375 17.8125 C23.17549162 16.80150724 21.2263723 14.82307577 18 12 C16.03003657 10.94205668 14.03729925 9.92163538 12 9 C12 8.34 12 7.68 12 7 C11.2575 6.87625 10.515 6.7525 9.75 6.625 C7.19858515 6.04513299 5.2732427 5.26291261 3 4 C3 3.34 3 2.68 3 2 C2.01 1.67 1.02 1.34 0 1 C0 0.67 0 0.34 0 0 Z " fill="#5A58A9" transform="translate(150,228)"/>
<path d="M0 0 C1.14893116 3.44679347 0.82672153 4.05923659 -0.4375 7.3125 C-1.77113954 11.02244273 -2.30630496 14.01803557 -2 18 C-2.99 18 -3.98 18 -5 18 C-5.268125 19.0725 -5.53625 20.145 -5.8125 21.25 C-6.88841583 24.64762895 -7.85295952 26.292862 -10 29 C-10.70514846 31.14733927 -10.70514846 31.14733927 -11 33 C-11.66 33 -12.32 33 -13 33 C-13.66 34.98 -14.32 36.96 -15 39 C-15.33 39 -15.66 39 -16 39 C-15.50269348 34.02693484 -14.44697666 30.36200187 -12 26 C-11.34 26 -10.68 26 -10 26 C-10.061875 24.88625 -10.061875 24.88625 -10.125 23.75 C-10 21 -10 21 -9 19.0625 C-7.66656257 16.3122853 -7.8629965 14.01407708 -8 11 C-6.35 10.34 -4.7 9.68 -3 9 C-3.061875 8.2575 -3.12375 7.515 -3.1875 6.75 C-2.96905704 3.54616994 -2.09749995 2.35968744 0 0 Z " fill="#7274B6" transform="translate(304,175)"/>
<path d="M0 0 C15.18 0 30.36 0 46 0 C41 4 41 4 38.90869141 4.19165039 C38.18858887 4.05750732 37.46848633 3.92336426 36.7265625 3.78515625 C32.1523453 3.11387502 27.64098917 2.81065604 23.0234375 2.68359375 C22.32180481 2.66253571 21.62017212 2.64147766 20.89727783 2.61978149 C18.72326048 2.55597043 16.54914876 2.49664573 14.375 2.4375 C12.87889688 2.39420285 11.38280299 2.35058544 9.88671875 2.30664062 C6.25791139 2.20073818 2.62899865 2.0991582 -1 2 C-0.67 1.34 -0.34 0.68 0 0 Z " fill="#271F1F" transform="translate(94,97)"/>
<path d="M0 0 C5.8897686 2.49182518 10.72673573 7.349683 15 12 C15 12.66 15 13.32 15 14 C15.556875 14.061875 16.11375 14.12375 16.6875 14.1875 C22.31122699 16.16340408 26.23926392 22.51554838 30 27 C25.3059321 26.8927751 22.90660463 26.34175991 19.578125 22.9453125 C18.45167213 21.68695648 17.34253911 20.41291081 16.25 19.125 C15.13029999 17.85668991 14.01051136 16.58845805 12.890625 15.3203125 C12.40625977 14.75586426 11.92189453 14.19141602 11.42285156 13.60986328 C8.5725046 10.35237107 8.5725046 10.35237107 5 8 C3.96210419 6.35666496 2.96432076 4.68756133 2 3 C1.34 2.01 0.68 1.02 0 0 Z " fill="#3C3536" transform="translate(301,191)"/>
<path d="M0 0 C3.06713244 1.36242426 5.11840293 2.89699705 7.4375 5.3125 C8.04464844 5.93769531 8.65179688 6.56289062 9.27734375 7.20703125 C9.84582031 7.79871094 10.41429687 8.39039063 11 9 C11.825 9.825 12.65 10.65 13.5 11.5 C16.66666667 14.66666667 19.83333333 17.83333333 23 21 C22.34 21.33 21.68 21.66 21 22 C20.67 22.66 20.34 23.32 20 24 C20 23.34 20 22.68 20 22 C19.34 22 18.68 22 18 22 C18 21.01 18 20.02 18 19 C16.68 19 15.36 19 14 19 C11.33187535 17.02361137 10.55704728 15.23087421 10 12 C9.23300781 11.938125 8.46601563 11.87625 7.67578125 11.8125 C5 11 5 11 3.41796875 8.75 C3.01191406 7.8425 2.60585937 6.935 2.1875 6 C1.76855469 5.0925 1.34960938 4.185 0.91796875 3.25 C0 1 0 1 0 0 Z " fill="#5C5BB3" transform="translate(158,246)"/>
<path d="M0 0 C0.33 0.66 0.66 1.32 1 2 C3.08611558 2.650539 3.08611558 2.650539 5.5 3.0625 C9.90606654 3.90606654 9.90606654 3.90606654 11 5 C12.77690109 5.22789426 14.56169968 5.39489788 16.34765625 5.53515625 C17.96704102 5.66567383 17.96704102 5.66567383 19.61914062 5.79882812 C20.75544922 5.88583984 21.89175781 5.97285156 23.0625 6.0625 C24.77276367 6.19881836 24.77276367 6.19881836 26.51757812 6.33789062 C29.34475741 6.56264546 32.17220464 6.78315711 35 7 C35 7.33 35 7.66 35 8 C18.88137364 8.57948601 4.16768325 8.6127934 -10 0 C-6.24527715 -2.59942351 -4.03404839 -1.7929104 0 0 Z " fill="#7B7EBF" transform="translate(143,285)"/>
<path d="M0 0 C0.66 0.66 1.32 1.32 2 2 C-4.76606798 13.24777217 -12.8642378 23.56126609 -22 33 C-22.33 33 -22.66 33 -23 33 C-23.25 30.75 -23.25 30.75 -23 28 C-21.25 25.9375 -21.25 25.9375 -19 24 C-18.319375 23.2575 -17.63875 22.515 -16.9375 21.75 C-15 20 -15 20 -12 20 C-11.62875 18.9171875 -11.62875 18.9171875 -11.25 17.8125 C-10 15 -10 15 -8.0625 12.75 C-5.67408717 9.56544956 -4.82376513 6.69909404 -3.80859375 2.890625 C-3.54175781 2.26671875 -3.27492188 1.6428125 -3 1 C-2.01 0.67 -1.02 0.34 0 0 Z " fill="#696DB1" transform="translate(286,213)"/>
<path d="M0 0 C4.87958475 5.51605233 4.32491244 12.76298056 4.30078125 19.78515625 C3.87507476 24.33523987 2.41098427 27.15749381 0 31 C-1.94566951 27.52452927 -2.07637127 25.87493656 -1 22 C0.32 22 1.64 22 3 22 C2.67 20.68 2.34 19.36 2 18 C1.34 18.99 0.68 19.98 0 21 C0 19.02 0 17.04 0 15 C-0.66 14.67 -1.32 14.34 -2 14 C-1.67 13.67 -1.34 13.34 -1 13 C-1.66 12.67 -2.32 12.34 -3 12 C-3 11.34 -3 10.68 -3 10 C-2.34 10 -1.68 10 -1 10 C-0.34 7.69 0.32 5.38 1 3 C0.34 2.67 -0.32 2.34 -1 2 C-0.67 1.34 -0.34 0.68 0 0 Z " fill="#28201C" transform="translate(230,20)"/>
<path d="M0 0 C2.125 0.9375 2.125 0.9375 4 2 C-3.59551078 8.35157007 -11.37554548 7.64696483 -20.75 7.48828125 C-22.37523302 7.47894303 -24.00048023 7.47183169 -25.62573242 7.46684265 C-29.8806723 7.44785191 -34.13474387 7.39882144 -38.38934326 7.34332275 C-42.73991147 7.29195771 -47.0906215 7.26929198 -51.44140625 7.24414062 C-59.96133371 7.19069328 -68.48055851 7.10547889 -77 7 C-77 6.67 -77 6.34 -77 6 C-41.855 5.505 -41.855 5.505 -6 5 C-6 4.34 -6 3.68 -6 3 C-4 2 -2 1 0 0 Z " fill="#E1E0E2" transform="translate(186,89)"/>
<path d="M0 0 C1.73636719 0.0009668 1.73636719 0.0009668 3.5078125 0.00195312 C8.40485707 0.02739966 12.95996772 0.08864248 17.75 1.1875 C17.75 1.5175 17.75 1.8475 17.75 2.1875 C16.53098999 2.22508423 16.53098999 2.22508423 15.28735352 2.26342773 C11.62889248 2.37899118 7.97071472 2.50189584 4.3125 2.625 C3.03310547 2.66431641 1.75371094 2.70363281 0.43554688 2.74414062 C-1.38686523 2.80698242 -1.38686523 2.80698242 -3.24609375 2.87109375 C-4.37200928 2.90775146 -5.4979248 2.94440918 -6.65795898 2.98217773 C-9.17853441 2.89968045 -9.17853441 2.89968045 -10.25 4.1875 C-12.78049402 4.26063567 -15.28304837 4.27997527 -17.8125 4.25 C-18.52341797 4.24548828 -19.23433594 4.24097656 -19.96679688 4.23632812 C-21.72790013 4.22450864 -23.48896036 4.20657263 -25.25 4.1875 C-17.78632436 -0.78828376 -8.65494833 -0.09280136 0 0 Z " fill="#7376C1" transform="translate(243.25,75.8125)"/>
<path d="M0 0 C1.32 0 2.64 0 4 0 C4 0.66 4 1.32 4 2 C4.66 2.33 5.32 2.66 6 3 C0.45946696 8.89418408 -5.06139071 13.81715043 -12 18 C-12.66 17.34 -13.32 16.68 -14 16 C-12.33333333 14.33333333 -10.66666667 12.66666667 -9 11 C-8.443125 10.401875 -7.88625 9.80375 -7.3125 9.1875 C-6 8 -6 8 -4 8 C-4 7.34 -4 6.68 -4 6 C-3 5 -2 4 -1 3 C-0.67 2.01 -0.34 1.02 0 0 Z " fill="#5F62C4" transform="translate(257,244)"/>
<path d="M0 0 C0.66 0.33 1.32 0.66 2 1 C2 1.66 2 2.32 2 3 C2.99 3.33 3.98 3.66 5 4 C6.61328125 5.63671875 6.61328125 5.63671875 8.3125 7.6875 C11.38656536 11.31751335 14.59601162 14.67903572 18 18 C17.67 18.99 17.34 19.98 17 21 C16.3709375 20.43152344 15.741875 19.86304688 15.09375 19.27734375 C13.80984375 18.11912109 13.80984375 18.11912109 12.5 16.9375 C11.59507813 16.11765625 10.69015625 15.2978125 9.7578125 14.453125 C8.04958594 12.93362602 6.31885799 11.43854748 4.5546875 9.984375 C3.47574219 9.09492188 3.47574219 9.09492188 2.375 8.1875 C1.72273438 7.66542969 1.07046875 7.14335937 0.3984375 6.60546875 C-1 5 -1 5 -1 1 C-0.67 0.67 -0.34 0.34 0 0 Z " fill="#3F3C3C" transform="translate(87,173)"/>
<path d="M0 0 C2.97 0 5.94 0 9 0 C9.99 2.64 10.98 5.28 12 8 C11.34 8.66 10.68 9.32 10 10 C6.60229115 9.6700572 4.7318913 8.1807479 2.25 5.9375 C1.63640625 5.38964844 1.0228125 4.84179688 0.390625 4.27734375 C-0.06828125 3.85582031 -0.5271875 3.43429688 -1 3 C-0.67 2.01 -0.34 1.02 0 0 Z " fill="#2E2423" transform="translate(5,97)"/>
<path d="M0 0 C5.5 -0.36666667 5.5 -0.36666667 7.875 1.375 C9 3 9 3 9 5 C10.32 5.33 11.64 5.66 13 6 C13 6.66 13 7.32 13 8 C13.99 8 14.98 8 16 8 C16 8.99 16 9.98 16 11 C16.66 11 17.32 11 18 11 C18 11.66 18 12.32 18 13 C19.32 13 20.64 13 22 13 C23.703125 14.75 23.703125 14.75 25.25 17 C25.77078125 17.7425 26.2915625 18.485 26.828125 19.25 C27.40820312 20.11625 27.40820312 20.11625 28 21 C25.50638429 19.79618552 23.31856917 18.54571278 21 17 C21 16.34 21 15.68 21 15 C20.30003906 14.76023438 19.60007813 14.52046875 18.87890625 14.2734375 C15.50147814 12.77948694 12.87505057 10.86065795 9.9375 8.625 C8.91527344 7.85414063 7.89304688 7.08328125 6.83984375 6.2890625 C4.38394034 4.30947598 2.17224545 2.2816391 0 0 Z " fill="#5957A9" transform="translate(122,207)"/>
<path d="M0 0 C1.3469511 4.04085329 0.38055386 7.10801306 -1 11 C-4.23880597 16.74626866 -4.23880597 16.74626866 -8 18 C-8.33 19.65 -8.66 21.3 -9 23 C-10.32 23 -11.64 23 -13 23 C-11.43706905 18.73230772 -9.33008257 14.86104196 -7.0625 10.9375 C-6.71509766 10.32583984 -6.36769531 9.71417969 -6.00976562 9.08398438 C-4.1813613 5.89891093 -2.28740967 2.87539585 0 0 Z " fill="#6C6EC6" transform="translate(129,144)"/>
<path d="M0 0 C3.39762409 1.13254136 4.24926077 2.50944295 6.39453125 5.2421875 C8.99160084 8.08569435 12.09751495 10.23213154 15.20703125 12.484375 C16.09455078 13.23460937 16.09455078 13.23460937 17 14 C17 14.66 17 15.32 17 16 C18.32 16.66 19.64 17.32 21 18 C19.02 18.99 19.02 18.99 17 20 C16.278125 19.2575 15.55625 18.515 14.8125 17.75 C12.1304054 15.036498 12.1304054 15.036498 9.5 13 C5.77592294 10.02073835 2.64826232 6.97239348 0 3 C0 2.01 0 1.02 0 0 Z " fill="#2C2A74" transform="translate(105,192)"/>
<path d="M0 0 C5.4857182 1.76658722 9.4528809 3.19422573 13 8 C12.8125 10.8125 12.8125 10.8125 12 13 C11.34 13 10.68 13 10 13 C8 11 8 11 7 9 C6.071875 8.566875 6.071875 8.566875 5.125 8.125 C2.58187524 6.77863983 1.48335896 5.44754229 0 3 C0 2.01 0 1.02 0 0 Z " fill="#251E1E" transform="translate(325,216)"/>
<path d="M0 0 C0.33 0 0.66 0 1 0 C1.50046947 13.31804856 0.48321733 25.12453594 -3 38 C-3.33 38 -3.66 38 -4 38 C-3.34 28.1 -2.68 18.2 -2 8 C-1.67 8 -1.34 8 -1 8 C-0.67 5.36 -0.34 2.72 0 0 Z " fill="#7171B9" transform="translate(309,136)"/>
<path d="M0 0 C0.33 0.99 0.66 1.98 1 3 C-0.375 5.5625 -0.375 5.5625 -2 8 C-2.62929083 9.25858165 -3.23690228 10.52847431 -3.8125 11.8125 C-5.29828443 14.54947133 -6.85577774 16.73325076 -9 19 C-11.75 19.8125 -11.75 19.8125 -14 20 C-12.2850816 16.0342512 -9.65226582 12.80587759 -7 9.4375 C-4.57888121 6.34192668 -2.1818227 3.27273406 0 0 Z " fill="#E1E6F6" transform="translate(284,220)"/>
<path d="M0 0 C0.66 0 1.32 0 2 0 C2 1.32 2 2.64 2 4 C1.34 4 0.68 4 0 4 C0.08378906 4.53625 0.16757813 5.0725 0.25390625 5.625 C0.99200869 11.30558587 1.00998263 16.79660947 0.6875 22.5 C0.65277588 23.20640625 0.61805176 23.9128125 0.58227539 24.640625 C0.24463834 29.75536166 0.24463834 29.75536166 -2 32 C-2.05859888 28.16673205 -2.09379643 24.33358112 -2.125 20.5 C-2.15013672 18.88351563 -2.15013672 18.88351563 -2.17578125 17.234375 C-2.2131143 11.11175408 -1.80603367 5.85894386 0 0 Z " fill="#7F85C4" transform="translate(103,202)"/>
<path d="M0 0 C0.66 0.99 1.32 1.98 2 3 C1.125 6.1875 1.125 6.1875 0 9 C-0.66 9 -1.32 9 -2 9 C-1.7525 9.721875 -1.505 10.44375 -1.25 11.1875 C-1 14 -1 14 -2.8125 16.8125 C-3.534375 17.534375 -4.25625 18.25625 -5 19 C-5.66 19 -6.32 19 -7 19 C-7.33 19.99 -7.66 20.98 -8 22 C-7.37910554 17.00956079 -5.90498961 12.79272252 -4 8.1875 C-3.72671875 7.50751953 -3.4534375 6.82753906 -3.171875 6.12695312 C-1.14553571 1.14553571 -1.14553571 1.14553571 0 0 Z " fill="#7375C4" transform="translate(115,168)"/>
<path d="M0 0 C0 0.66 0 1.32 0 2 C-3.43564022 3.00646726 -6.87379629 4.0040545 -10.3125 5 C-11.28896484 5.28617187 -12.26542969 5.57234375 -13.27148438 5.8671875 C-14.67817383 6.27324219 -14.67817383 6.27324219 -16.11328125 6.6875 C-16.97735596 6.93886719 -17.84143066 7.19023438 -18.73168945 7.44921875 C-21 8 -21 8 -24 8 C-24 7.34 -24 6.68 -24 6 C-21.36 5.34 -18.72 4.68 -16 4 C-16 3.01 -16 2.02 -16 1 C-10.65097076 0.40801257 -5.39115154 -0.14187241 0 0 Z " fill="#E3E5F9" transform="translate(232,74)"/>
<path d="M0 0 C0.66 0 1.32 0 2 0 C2.33 0.66 2.66 1.32 3 2 C4.98 1.67 6.96 1.34 9 1 C9 2.32 9 3.64 9 5 C8.01 5.495 8.01 5.495 7 6 C7 6.99 7 7.98 7 9 C2.68607774 8.5206753 0.83430453 7.2542015 -2 4 C-1 1 -1 1 0 0 Z " fill="#221817" transform="translate(64,151)"/>
<path d="M0 0 C0.66 0.33 1.32 0.66 2 1 C0.71034824 2.37562854 -0.62689293 3.70766393 -2 5 C-2.66 5 -3.32 5 -4 5 C-4.33 5.99 -4.66 6.98 -5 8 C-8.3125 9.125 -8.3125 9.125 -12 10 C-12.804375 10.20625 -13.60875 10.4125 -14.4375 10.625 C-14.953125 10.74875 -15.46875 10.8725 -16 11 C-14.94007569 7.68037594 -13.85190728 6.90907543 -10.8125 5.04296875 C-9.54783626 4.41195975 -8.27669326 3.79380112 -7 3.1875 C-6.03707031 2.70120117 -6.03707031 2.70120117 -5.0546875 2.20507812 C-3.4029813 1.39823001 -1.70343441 0.69097646 0 0 Z " fill="#6A6CC4" transform="translate(198,86)"/>
<path d="M0 0 C0.66 0.99 1.32 1.98 2 3 C1.54625 3.721875 1.0925 4.44375 0.625 5.1875 C-1.06756718 7.90687362 -1.06756718 7.90687362 -1.9375 10.75 C-3 13 -3 13 -5 13.9375 C-5.99 13.9684375 -5.99 13.9684375 -7 14 C-7.66 13.34 -8.32 12.68 -9 12 C-7.87749844 10.37327315 -6.75191267 8.74867418 -5.625 7.125 C-4.68527344 5.76761719 -4.68527344 5.76761719 -3.7265625 4.3828125 C-2 2 -2 2 0 0 Z " fill="#6F70C8" transform="translate(140,130)"/>
<path d="M0 0 C-6.91940616 4.61293744 -17.50010273 3.13819282 -25.625 3.25 C-26.51437256 3.27143066 -27.40374512 3.29286133 -28.32006836 3.31494141 C-29.15546143 3.31929199 -29.99085449 3.32364258 -30.8515625 3.328125 C-31.60260254 3.3374707 -32.35364258 3.34681641 -33.12744141 3.35644531 C-33.74538574 3.23881836 -34.36333008 3.12119141 -35 3 C-35.66 2.01 -36.32 1.02 -37 0 C-35.82026611 0.00785522 -35.82026611 0.00785522 -34.61669922 0.01586914 C-31.03614101 0.0367201 -27.45559562 0.04968601 -23.875 0.0625 C-22.01875 0.07506836 -22.01875 0.07506836 -20.125 0.08789062 C-18.92617187 0.09111328 -17.72734375 0.09433594 -16.4921875 0.09765625 C-14.84259033 0.10551147 -14.84259033 0.10551147 -13.15966797 0.11352539 C-0.94035841 -0.32550868 -0.94035841 -0.32550868 0 0 Z " fill="#EAEBFD" transform="translate(188,292)"/>
<path d="M0 0 C8.20224719 6.74157303 8.20224719 6.74157303 10 10 C9.67 10.99 9.34 11.98 9 13 C7.68 13 6.36 13 5 13 C4.34 11.02 3.68 9.04 3 7 C1.68 7 0.36 7 -1 7 C-0.67 4.69 -0.34 2.38 0 0 Z " fill="#6362C6" transform="translate(105,195)"/>
<path d="M0 0 C4.44556272 0.4167715 7.23682607 2.33955713 10.86328125 4.72265625 C14.0966437 6.65558042 17.43880915 7.79173882 21 9 C21 9.33 21 9.66 21 10 C19.02 10 17.04 10 15 10 C15 9.34 15 8.68 15 8 C14.01 8.33 13.02 8.66 12 9 C10.1875 8.25 10.1875 8.25 8 7 C6.9275 6.46375 5.855 5.9275 4.75 5.375 C3.8425 4.92125 2.935 4.4675 2 4 C2 3.34 2 2.68 2 2 C1.34 2 0.68 2 0 2 C0 1.34 0 0.68 0 0 Z " fill="#2A2345" transform="translate(196,256)"/>
<path d="M0 0 C0.33 0 0.66 0 1 0 C1 2.64 1 5.28 1 8 C1.66 8 2.32 8 3 8 C4.65497356 11.30994713 4.10084335 14.99123 4.0625 18.625 C4.05798828 19.42679688 4.05347656 20.22859375 4.04882812 21.0546875 C4.03703168 23.03649006 4.01909605 25.01825433 4 27 C3.67 27 3.34 27 3 27 C2.86722656 26.14535156 2.73445313 25.29070312 2.59765625 24.41015625 C2.42105469 23.30542969 2.24445313 22.20070312 2.0625 21.0625 C1.88847656 19.96035156 1.71445312 18.85820312 1.53515625 17.72265625 C1.28154864 15.09573071 1.28154864 15.09573071 0 14 C-0.07271741 11.64686445 -0.08370868 9.29166332 -0.0625 6.9375 C-0.05347656 5.64714844 -0.04445313 4.35679688 -0.03515625 3.02734375 C-0.02355469 2.02832031 -0.01195312 1.02929688 0 0 Z " fill="#6263BF" transform="translate(305,122)"/>
<path d="M0 0 C0.33 0.66 0.66 1.32 1 2 C-0.92529733 6.17147755 -3.04186487 7.82302568 -7 10 C-8.81476003 11.39585785 -8.81476003 11.39585785 -10 13 C-10 13.99 -10 14.98 -10 16 C-11.32 15.67 -12.64 15.34 -14 15 C-14.33 15.99 -14.66 16.98 -15 18 C-15.66 17.67 -16.32 17.34 -17 17 C-15.71520959 15.49410612 -14.42195918 13.99542625 -13.125 12.5 C-12.40570313 11.6646875 -11.68640625 10.829375 -10.9453125 9.96875 C-10.30335938 9.3190625 -9.66140625 8.669375 -9 8 C-8.34 8 -7.68 8 -7 8 C-6.67 7.01 -6.34 6.02 -6 5 C-4.12382302 3.15500602 -2.07262391 1.6316401 0 0 Z " fill="#7274C0" transform="translate(158,112)"/>
<path d="M0 0 C2.97 0 5.94 0 9 0 C9 0.33 9 0.66 9 1 C16.59 1.33 24.18 1.66 32 2 C32 2.33 32 2.66 32 3 C27.62218616 3.19218929 23.24409441 3.37092139 18.86523438 3.53710938 C17.37517512 3.59556854 15.88525624 3.65772629 14.39550781 3.72363281 C12.25611936 3.81764056 10.11658132 3.89840682 7.9765625 3.9765625 C6.04417725 4.05511475 6.04417725 4.05511475 4.07275391 4.13525391 C1 4 1 4 -1 2 C-0.67 1.34 -0.34 0.68 0 0 Z " fill="#564E4E" transform="translate(85,97)"/>
<path d="M0 0 C2.64 0 5.28 0 8 0 C8.33 0.99 8.66 1.98 9 3 C10.32 2.67 11.64 2.34 13 2 C12.01 2.495 12.01 2.495 11 3 C11 3.66 11 4.32 11 5 C11.99 5.33 12.98 5.66 14 6 C13.01 6.495 13.01 6.495 12 7 C11.01 6.67 10.02 6.34 9 6 C7.10787263 5.77820215 5.21115528 5.59385985 3.3125 5.4375 C2.31863281 5.35371094 1.32476562 5.26992187 0.30078125 5.18359375 C-0.83810547 5.09271484 -0.83810547 5.09271484 -2 5 C-1.67 4.360625 -1.34 3.72125 -1 3.0625 C0.07271225 1.23205433 0.07271225 1.23205433 0 0 Z " fill="#F9FAF7" transform="translate(201,0)"/>
<path d="M0 0 C1.14274621 3.42823863 0.83857544 4.11282015 -0.375 7.375 C-1.51782319 10.57386127 -2.45720875 13.63469423 -3 17 C-3.99 17.33 -4.98 17.66 -6 18 C-6.66 18.66 -7.32 19.32 -8 20 C-8 17.03 -8 14.06 -8 11 C-6.35 10.34 -4.7 9.68 -3 9 C-3.061875 8.2575 -3.12375 7.515 -3.1875 6.75 C-2.96905704 3.54616994 -2.09749995 2.35968744 0 0 Z " fill="#6160B4" transform="translate(304,175)"/>
<path d="M0 0 C5.8897686 2.49182518 10.72673573 7.349683 15 12 C15 12.66 15 13.32 15 14 C16.32 14.33 17.64 14.66 19 15 C17.3125 15.75 17.3125 15.75 15 16 C12.00357773 13.95366284 9.55475036 11.55475036 7 9 C6.34 8.67 5.68 8.34 5 8 C3.96210419 6.35666496 2.96432076 4.68756133 2 3 C1.34 2.01 0.68 1.02 0 0 Z " fill="#4C4A48" transform="translate(301,191)"/>
<path d="M0 0 C0.99 0.33 1.98 0.66 3 1 C3 1.66 3 2.32 3 3 C3.88945312 3.13728516 3.88945312 3.13728516 4.796875 3.27734375 C7.52534657 4.17232113 8.47125041 5.33906301 10.25 7.5625 C11.03117188 8.52349609 11.03117188 8.52349609 11.828125 9.50390625 C12.21484375 9.99761719 12.6015625 10.49132812 13 11 C12.34 11 11.68 11 11 11 C10.67 11.66 10.34 12.32 10 13 C10 12.34 10 11.68 10 11 C9.34 11 8.68 11 8 11 C8 10.01 8 9.02 8 8 C6.68 8 5.36 8 4 8 C1.56993983 6.28995766 1.05539884 5.21655911 0.3125 2.3125 C0.209375 1.549375 0.10625 0.78625 0 0 Z " fill="#5F5EB9" transform="translate(168,257)"/>
<path d="M0 0 C4.63720719 3.27530896 8.68542782 6.30435607 12 11 C11.34 11 10.68 11 10 11 C9.34 11.66 8.68 12.32 8 13 C7.34 11.68 6.68 10.36 6 9 C5.34 9 4.68 9 4 9 C3 9 2 9 1 9 C-0.4783226 6.04335481 -0.06032783 3.25770263 0 0 Z " fill="#372F2D" transform="translate(370,255)"/>
<path d="M0 0 C1.12588014 0.95729916 2.2506715 1.91587895 3.375 2.875 C4.00148438 3.40867187 4.62796875 3.94234375 5.2734375 4.4921875 C6.55836651 5.61432007 7.79371975 6.79371975 9 8 C9.125 10.625 9.125 10.625 9 13 C5.11276476 11.52553146 4.06098117 9.4947072 2 6 C1.01 5.67 0.02 5.34 -1 5 C-0.67 3.35 -0.34 1.7 0 0 Z " fill="#6D6FC0" transform="translate(286,89)"/>
<path d="M0 0 C2.475 0.495 2.475 0.495 5 1 C5 1.66 5 2.32 5 3 C5.886875 3.226875 6.77375 3.45375 7.6875 3.6875 C11.43380532 5.17188513 13.33729434 7.02403485 16 10 C14.68 10.33 13.36 10.66 12 11 C11.34 9.68 10.68 8.36 10 7 C8.9171875 7.12375 8.9171875 7.12375 7.8125 7.25 C4.10659265 6.92058601 2.59688473 5.59688473 0 3 C0 2.01 0 1.02 0 0 Z " fill="#271E3F" transform="translate(157,234)"/>
<path d="M0 0 C5.50719921 3.90510489 10.35827355 8.09717644 15 13 C13.68 13.33 12.36 13.66 11 14 C10.67 13.34 10.34 12.68 10 12 C9.01 11.67 8.02 11.34 7 11 C6.71125 10.195625 6.4225 9.39125 6.125 8.5625 C5.22055781 5.76071559 5.22055781 5.76071559 2.375 4.6875 C1.59125 4.460625 0.8075 4.23375 0 4 C0 2.68 0 1.36 0 0 Z " fill="#5D5AAF" transform="translate(181,268)"/>
<path d="M0 0 C3.83146596 1.56096761 6.28148054 3.91411305 9 7 C9.8125 9.3125 9.8125 9.3125 10 11 C6.76138697 9.55575365 4.38030837 7.74227753 1.75 5.375 C1.04359375 4.74335938 0.3371875 4.11171875 -0.390625 3.4609375 C-0.92171875 2.97882813 -1.4528125 2.49671875 -2 2 C-1.34 1.34 -0.68 0.68 0 0 Z " fill="#5D5EB7" transform="translate(112,195)"/>
<path d="M0 0 C5.66048421 0.3190289 11.48412144 1.41844114 16 5 C16 5.33 16 5.66 16 6 C14.37581255 6.08090971 12.75048255 6.13914995 11.125 6.1875 C10.22007812 6.22230469 9.31515625 6.25710937 8.3828125 6.29296875 C7.20332031 6.14794922 7.20332031 6.14794922 6 6 C5.34 5.01 4.68 4.02 4 3 C0.93443402 2.26656572 0.93443402 2.26656572 -2 2 C-1.34 1.34 -0.68 0.68 0 0 Z " fill="#6F72BD" transform="translate(261,78)"/>
<path d="M0 0 C3.46941546 0.45822468 6.67395049 0.89131683 10 2 C10.33 4.97 10.66 7.94 11 11 C6.84641746 7.56530675 3.21124658 4.36729534 0 0 Z " fill="#2E2541" transform="translate(193,278)"/>
<path d="M0 0 C1.32 1.65 2.64 3.3 4 5 C3.34 6.32 2.68 7.64 2 9 C1.01 9 0.02 9 -1 9 C-1.33 9.99 -1.66 10.98 -2 12 C-2.99 10.68 -3.98 9.36 -5 8 C-4.34 7.67 -3.68 7.34 -3 7 C-2.67 6.01 -2.34 5.02 -2 4 C-1.34 4 -0.68 4 0 4 C0 2.68 0 1.36 0 0 Z " fill="#423837" transform="translate(73,152)"/>
<path d="M0 0 C-0.66 1.65 -1.32 3.3 -2 5 C-2.66 5 -3.32 5 -4 5 C-4.2475 5.598125 -4.495 6.19625 -4.75 6.8125 C-6.16370012 9.28647521 -7.65055383 10.43370255 -10 12 C-9.29057322 8.31098072 -7.89872582 5.2348662 -6 2 C-3.78871894 0.52581263 -2.64329833 0 0 0 Z " fill="#EDEEFD" transform="translate(147,121)"/>
<path d="M0 0 C-3.3 2.64 -6.6 5.28 -10 8 C-10.99 7.34 -11.98 6.68 -13 6 C-5.91489362 -1.4787234 -5.91489362 -1.4787234 0 0 Z " fill="#6D6FBA" transform="translate(256,254)"/>
<path d="M0 0 C2.6875 -0.3125 2.6875 -0.3125 5 0 C4 3 4 3 1.5625 5.375 C-0.92607784 7.92427486 -1.94781267 9.65213121 -3 13 C-3.33 13 -3.66 13 -4 13 C-4.625 10.125 -4.625 10.125 -5 7 C-4.34 6.34 -3.68 5.68 -3 5 C-2.566875 4.13375 -2.13375 3.2675 -1.6875 2.375 C-0.8521875 1.199375 -0.8521875 1.199375 0 0 Z " fill="#302927" transform="translate(70,105)"/>
<path d="M0 0 C0.33 0 0.66 0 1 0 C0.97679687 1.0621875 0.95359375 2.124375 0.9296875 3.21875 C0.75383769 13.75490165 0.75383769 13.75490165 3 24 C1.01953125 23.02734375 1.01953125 23.02734375 -1 21 C-1.32472071 18.04772273 -1.42344413 15.49882128 -1.3125 12.5625 C-1.30283203 11.79873047 -1.29316406 11.03496094 -1.28320312 10.24804688 C-1.2113725 6.65963874 -0.96273948 3.4725485 0 0 Z " fill="#A39C99" transform="translate(175,25)"/>
<path d="M0 0 C0 4.0723793 -1.93242597 6.63930407 -4 10 C-4.639375 11.11375 -5.27875 12.2275 -5.9375 13.375 C-8 16 -8 16 -10.75 16.875 C-11.4925 16.91625 -12.235 16.9575 -13 17 C-12.01 15.515 -12.01 15.515 -11 14 C-10.34 14 -9.68 14 -9 14 C-8.71125 13.4225 -8.4225 12.845 -8.125 12.25 C-7.75375 11.5075 -7.3825 10.765 -7 10 C-6.67 9.278125 -6.34 8.55625 -6 7.8125 C-5 6 -5 6 -3 5 C-1.9590934 3.35857037 -0.95495674 1.69287785 0 0 Z " fill="#6063C5" transform="translate(282,217)"/>
<path d="M0 0 C3.2626876 3.08632611 6.02235218 5.93483504 8 10 C7.67 10.66 7.34 11.32 7 12 C4 10.25 4 10.25 1 8 C1 6.68 1 5.36 1 4 C0.34 3.34 -0.32 2.68 -1 2 C-0.67 1.34 -0.34 0.68 0 0 Z " fill="#DFDBDA" transform="translate(325,219)"/>
<path d="M0 0 C5.41342681 1.14514798 7.9342948 2.34012809 11 7 C9.02 7 7.04 7 5 7 C4.34 5.68 3.68 4.36 3 3 C2.34 3 1.68 3 1 3 C0.67 2.01 0.34 1.02 0 0 Z " fill="#6062C8" transform="translate(124,217)"/>
<path d="M0 0 C0.66 0.33 1.32 0.66 2 1 C1.67 4.3 1.34 7.6 1 11 C0.01 11 -0.98 11 -2 11 C-3.125 9.25 -3.125 9.25 -4 7 C-3.125 4.75 -3.125 4.75 -2 3 C-1.34 3 -0.68 3 0 3 C0 2.01 0 1.02 0 0 Z " fill="#6261C1" transform="translate(110,184)"/>
<path d="M0 0 C0.99 0 1.98 0 3 0 C1.35821735 4.77609498 -1.26546702 8.79382904 -4 13 C-4.66 12.01 -5.32 11.02 -6 10 C-5.34 10 -4.68 10 -4 10 C-4.185625 9.38125 -4.37125 8.7625 -4.5625 8.125 C-5 6 -5 6 -4 4 C-2.68 4 -1.36 4 0 4 C0 2.68 0 1.36 0 0 Z " fill="#E4E8FC" transform="translate(122,150)"/>
<path d="M0 0 C0.33 0.66 0.66 1.32 1 2 C0.175 2.37125 -0.65 2.7425 -1.5 3.125 C-5.10349429 5.05544337 -8.03185516 7.29266108 -11.16796875 9.890625 C-11.77253906 10.25671875 -12.37710938 10.6228125 -13 11 C-13.99 10.67 -14.98 10.34 -16 10 C-16 9.34 -16 8.68 -16 8 C-13.03685715 5.94226191 -10.45900259 4.86475065 -7 4 C-6.67 3.34 -6.34 2.68 -6 2 C-4.02111039 1.27306096 -2.02045442 0.60183749 0 0 Z " fill="#2B245B" transform="translate(176,98)"/>
<path d="M0 0 C1.51400391 0.01740234 1.51400391 0.01740234 3.05859375 0.03515625 C4.07050781 0.04417969 5.08242187 0.05320312 6.125 0.0625 C7.29869141 0.07990234 7.29869141 0.07990234 8.49609375 0.09765625 C6.61915535 2.1756952 5.01459554 3.83840535 2.49609375 5.09765625 C0.49609375 5.09765625 0.49609375 5.09765625 -1.75390625 3.16015625 C-2.33140625 2.47953125 -2.90890625 1.79890625 -3.50390625 1.09765625 C-2.50390625 0.09765625 -2.50390625 0.09765625 0 0 Z " fill="#25191C" transform="translate(162.50390625,96.90234375)"/>
<path d="M0 0 C0.33 0 0.66 0 1 0 C1 5.94 1 11.88 1 18 C-0.32 18 -1.64 18 -3 18 C-2.32418477 11.91766294 -1.26361972 5.98685848 0 0 Z " fill="#CCD1ED" transform="translate(308,160)"/>
<path d="M0 0 C-0.33 0.99 -0.66 1.98 -1 3 C-6.61 3.99 -12.22 4.98 -18 6 C-17 4 -17 4 -14.19921875 2.9296875 C-12.46091797 2.40761719 -12.46091797 2.40761719 -10.6875 1.875 C-9.53636719 1.52179688 -8.38523438 1.16859375 -7.19921875 0.8046875 C-4 0 -4 0 0 0 Z " fill="#7A7DC2" transform="translate(218,80)"/>
<path d="M0 0 C0.33 0.99 0.66 1.98 1 3 C0.34 3 -0.32 3 -1 3 C-1.12375 3.804375 -1.2475 4.60875 -1.375 5.4375 C-1.58125 6.283125 -1.7875 7.12875 -2 8 C-2.99 8.495 -2.99 8.495 -4 9 C-2.25 2.25 -2.25 2.25 0 0 Z M-5 9 C-3.66667905 11.6666419 -4.32897967 13.16680303 -5 16 C-6.32 16.33 -7.64 16.66 -9 17 C-8.40138258 14.64828869 -7.73075648 12.3140622 -7 10 C-6.34 9.67 -5.68 9.34 -5 9 Z " fill="#5E63C5" transform="translate(293,198)"/>
<path d="M0 0 C1.65 0.99 3.3 1.98 5 3 C4.67 5.64 4.34 8.28 4 11 C3.34 9.68 2.68 8.36 2 7 C1.01 7.66 0.02 8.32 -1 9 C-0.67 6.03 -0.34 3.06 0 0 Z " fill="#DCDEE4" transform="translate(100,191)"/>
<path d="M0 0 C1.32 0 2.64 0 4 0 C4 0.66 4 1.32 4 2 C5.2065625 2.433125 5.2065625 2.433125 6.4375 2.875 C9 4 9 4 10 6 C10.99 6.33 11.98 6.66 13 7 C12.67 7.99 12.34 8.98 12 10 C10.37042688 8.90259375 8.74648772 7.79681808 7.125 6.6875 C5.76761719 5.76517578 5.76761719 5.76517578 4.3828125 4.82421875 C2 3 2 3 0 0 Z " fill="#7678BB" transform="translate(119,274)"/>
<path d="M0 0 C1.4589426 0.47730838 2.91713496 0.95691042 4.375 1.4375 C5.18710938 1.70433594 5.99921875 1.97117188 6.8359375 2.24609375 C9 3 9 3 11 4 C11 4.66 11 5.32 11 6 C11.99 6.33 12.98 6.66 14 7 C13.01 7.33 12.02 7.66 11 8 C10.34 7.67 9.68 7.34 9 7 C9 6.34 9 5.68 9 5 C7.88625 4.9175 6.7725 4.835 5.625 4.75 C4.42875 4.5025 3.2325 4.255 2 4 C0.7734375 1.953125 0.7734375 1.953125 0 0 Z " fill="#5F61C1" transform="translate(173,240)"/>
<path d="M0 0 C5.36784389 3.57856259 7.19214051 9.97380169 9 16 C8.34 16.66 7.68 17.32 7 18 C6.0197729 15.56292162 5.04077829 13.12536055 4.0625 10.6875 C3.64581055 9.65206055 3.64581055 9.65206055 3.22070312 8.59570312 C2.07859872 5.74732227 0.97069769 2.91209306 0 0 Z " fill="#7475C0" transform="translate(295,98)"/>
<path d="M0 0 C0.66 0.33 1.32 0.66 2 1 C1.01 1.66 0.02 2.32 -1 3 C-1.33 3.99 -1.66 4.98 -2 6 C-5.33333333 6.66666667 -8.66666667 7.33333333 -12 8 C-8.2646504 3.81188075 -5.22578394 1.77479455 0 0 Z " fill="#D9D5D3" transform="translate(83,102)"/>
<path d="M0 0 C3.63 0.33 7.26 0.66 11 1 C11.33 2.32 11.66 3.64 12 5 C6.25 5.125 6.25 5.125 4 4 C4 3.34 4 2.68 4 2 C2.68 1.67 1.36 1.34 0 1 C0 0.67 0 0.34 0 0 Z " fill="#54549E" transform="translate(188,251)"/>
<path d="M0 0 C2.00451121 0.30503431 4.00448218 0.64080679 6 1 C8.27650745 0.6422386 8.27650745 0.6422386 10 0 C10 1.65 10 3.3 10 5 C5.80530429 4.40075776 1.99000166 3.42500059 -2 2 C-1.34 1.34 -0.68 0.68 0 0 Z " fill="#E9E3E3" transform="translate(242,273)"/>
<path d="M0 0 C2 0 2 0 4.125 2.0625 C6.40650982 5.63686538 6.32644414 7.83783725 6 12 C2.50071836 9.66714557 2.3670902 8.79204931 1.3125 4.875 C1.06113281 3.96492187 0.80976563 3.05484375 0.55078125 2.1171875 C0.27814453 1.06917969 0.27814453 1.06917969 0 0 Z " fill="#4E4544" transform="translate(335,232)"/>
<path d="M0 0 C0.33 1.32 0.66 2.64 1 4 C0.236875 4.5775 -0.52625 5.155 -1.3125 5.75 C-3.66200917 7.71703093 -5.29323505 9.48476744 -7 12 C-7 11.34 -7 10.68 -7 10 C-7.66 9.67 -8.32 9.34 -9 9 C-6.03 6.03 -3.06 3.06 0 0 Z " fill="#E1E5F8" transform="translate(267,242)"/>
<path d="M0 0 C1 3 1 3 0.22265625 5.04296875 C-0.16019531 5.75066406 -0.54304687 6.45835938 -0.9375 7.1875 C-1.31777344 7.90292969 -1.69804687 8.61835937 -2.08984375 9.35546875 C-2.54037109 10.16951172 -2.54037109 10.16951172 -3 11 C-4.94566951 7.52452927 -5.07637127 5.87493656 -4 2 C-2.68 2 -1.36 2 0 2 C0 1.34 0 0.68 0 0 Z " fill="#302624" transform="translate(233,40)"/>
<path d="M0 0 C0.33 0.66 0.66 1.32 1 2 C1.99 2 2.98 2 4 2 C2.6302836 5.99500618 0.74277578 8.80009492 -2 12 C-1.85962479 10.18706911 -1.71255111 8.3746557 -1.5625 6.5625 C-1.48128906 5.55316406 -1.40007812 4.54382813 -1.31640625 3.50390625 C-1 1 -1 1 0 0 Z " fill="#E4E6F9" transform="translate(132,132)"/>
<path d="M0 0 C3.55780196 0.60990891 6.6828589 1.5783681 10 3 C10 3.66 10 4.32 10 5 C10.99 5 11.98 5 13 5 C12.67 6.32 12.34 7.64 12 9 C11.46890625 8.59007813 10.9378125 8.18015625 10.390625 7.7578125 C9.68421875 7.21898438 8.9778125 6.68015625 8.25 6.125 C7.55390625 5.59132813 6.8578125 5.05765625 6.140625 4.5078125 C4.15277397 3.10761086 2.20156614 2.02144735 0 1 C0 0.67 0 0.34 0 0 Z " fill="#D6DBF5" transform="translate(277,83)"/>
<path d="M0 0 C0.66 0.66 1.32 1.32 2 2 C1.625 5.125 1.625 5.125 1 8 C-0.65 6.68 -2.3 5.36 -4 4 C-3.67 3.01 -3.34 2.02 -3 1 C-2.01 0.67 -1.02 0.34 0 0 Z " fill="#F3F1F0" transform="translate(406,281)"/>
<path d="M0 0 C0.99 1.32 1.98 2.64 3 4 C1.35 5.65 -0.3 7.3 -2 9 C-2.66 8.34 -3.32 7.68 -4 7 C-2.68 4.69 -1.36 2.38 0 0 Z " fill="#E3E7F8" transform="translate(290,210)"/>
<path d="M0 0 C-3.4019487 2.09350689 -6.05272412 2.17942163 -10 2 C-10 1.67 -10 1.34 -10 1 C-12.31 0.67 -14.62 0.34 -17 0 C-17 -0.33 -17 -0.66 -17 -1 C-5.47835991 -2.51708428 -5.47835991 -2.51708428 0 0 Z " fill="#7375C6" transform="translate(188,290)"/>
<path d="M0 0 C0.33 0.66 0.66 1.32 1 2 C1.99 2.33 2.98 2.66 4 3 C1.69 4.98 -0.62 6.96 -3 9 C-3.26218749 5.85375007 -3.24754367 4.38162983 -1.5 1.6875 C-1.005 1.130625 -0.51 0.57375 0 0 Z " fill="#7072BE" transform="translate(266,237)"/>
<path d="M0 0 C2.475 0.495 2.475 0.495 5 1 C5 1.66 5 2.32 5 3 C6.32 3.66 7.64 4.32 9 5 C7.02 5.99 7.02 5.99 5 7 C3.29115995 5.37660195 1.62553283 3.70680947 0 2 C0 1.34 0 0.68 0 0 Z " fill="#282769" transform="translate(117,205)"/>
<path d="M0 0 C1.14926266 0.95421808 2.29430541 1.91352045 3.4375 2.875 C4.07558594 3.40867188 4.71367188 3.94234375 5.37109375 4.4921875 C7 6 7 6 8 8 C6.35 8.33 4.7 8.66 3 9 C2.71125 8.21625 2.4225 7.4325 2.125 6.625 C1.15087746 3.90328368 1.15087746 3.90328368 -1 2 C-0.67 1.34 -0.34 0.68 0 0 Z " fill="#E2DCD9" transform="translate(50,143)"/>
<path d="M0 0 C0.99 0 1.98 0 3 0 C3 0.66 3 1.32 3 2 C4.32 2.66 5.64 3.32 7 4 C6.67 4.99 6.34 5.98 6 7 C2.63279613 5.60667426 1.0140476 4.0210714 -1 1 C-0.67 0.67 -0.34 0.34 0 0 Z " fill="#342C2B" transform="translate(19,111)"/>
<path d="M0 0 C-1.98 0.99 -1.98 0.99 -4 2 C-4 2.66 -4 3.32 -4 4 C-6.31 4 -8.62 4 -11 4 C-10.67 3.01 -10.34 2.02 -10 1 C-6.78548731 -0.60725635 -3.56387464 -0.05748185 0 0 Z " fill="#3C3334" transform="translate(282,285)"/>
<path d="M0 0 C2 3.75 2 3.75 2 6 C3.32 6.33 4.64 6.66 6 7 C5.67 8.32 5.34 9.64 5 11 C2.36 8.36 -0.28 5.72 -3 3 C-2.01 2.01 -1.02 1.02 0 0 Z " fill="#E1DDDA" transform="translate(370,249)"/>
<path d="M0 0 C2.31 1.98 4.62 3.96 7 6 C4.29120665 7.35439668 1.99066732 7.06501451 -1 7 C-0.67 4.69 -0.34 2.38 0 0 Z " fill="#645FB0" transform="translate(105,195)"/>
<path d="M0 0 C4.1424367 1.38081223 5.32203099 3.59825558 8 7 C7.01 7.495 7.01 7.495 6 8 C6 7.34 6 6.68 6 6 C5.01 6.33 4.02 6.66 3 7 C3 6.34 3 5.68 3 5 C1.68 4.34 0.36 3.68 -1 3 C-0.67 2.01 -0.34 1.02 0 0 Z " fill="#E7E4E2" transform="translate(88,180)"/>
<path d="M0 0 C-3.06117568 2.62386487 -3.73173127 3 -8 3 C-8.33 3.99 -8.66 4.98 -9 6 C-9.66 6 -10.32 6 -11 6 C-11 3 -11 3 -9.4375 1.3125 C-6.19368832 -0.43416783 -3.62656715 -0.20922503 0 0 Z " fill="#22193B" transform="translate(178,97)"/>
<path d="M0 0 C2.04119788 1.61594832 4.04072937 3.2856382 6 5 C6 5.66 6 6.32 6 7 C4.35 7 2.7 7 1 7 C0.31292445 4.50935112 0 2.62113708 0 0 Z " fill="#382F30" transform="translate(401,284)"/>
<path d="M0 0 C1.32 0.33 2.64 0.66 4 1 C4 1.66 4 2.32 4 3 C6.97 3.495 6.97 3.495 10 4 C10 4.66 10 5.32 10 6 C10.66 6.33 11.32 6.66 12 7 C9.69 6.67 7.38 6.34 5 6 C5 5.34 5 4.68 5 4 C4.34 4 3.68 4 3 4 C3 3.34 3 2.68 3 2 C2.01 2 1.02 2 0 2 C0 1.34 0 0.68 0 0 Z " fill="#2B264E" transform="translate(176,245)"/>
<path d="M0 0 C1.32 1.65 2.64 3.3 4 5 C3.01 5.33 2.02 5.66 1 6 C0.34 5.67 -0.32 5.34 -1 5 C-1.33 5.99 -1.66 6.98 -2 8 C-2.66 7.01 -3.32 6.02 -4 5 C-3.01 4.34 -2.02 3.68 -1 3 C-0.67 2.01 -0.34 1.02 0 0 Z M4 2 C4.66 2 5.32 2 6 2 C6 2.66 6 3.32 6 4 C5.34 4 4.68 4 4 4 C4 3.34 4 2.68 4 2 Z " fill="#241415" transform="translate(344,234)"/>
<path d="M0 0 C0.99 0.99 1.98 1.98 3 3 C1.515 5.475 1.515 5.475 0 8 C-0.99 7.34 -1.98 6.68 -3 6 C-3 5.01 -3 4.02 -3 3 C-2.01 3 -1.02 3 0 3 C0 2.01 0 1.02 0 0 Z " fill="#28201E" transform="translate(75,158)"/>
<path d="M0 0 C0.33 1.32 0.66 2.64 1 4 C0.01 4.495 0.01 4.495 -1 5 C-1 5.99 -1 6.98 -1 8 C-2.32 7.67 -3.64 7.34 -5 7 C-5.33 7.99 -5.66 8.98 -6 10 C-6.66 9.67 -7.32 9.34 -8 9 C-5.36 6.03 -2.72 3.06 0 0 Z " fill="#7F7FC4" transform="translate(149,120)"/>
<path d="M0 0 C2.23960447 2.87949147 4.29864224 5.76742026 6 9 C5.67 9.66 5.34 10.32 5 11 C3.0625 10 3.0625 10 1 8 C0.33450549 5.30075428 0.18319237 2.79368363 0 0 Z " fill="#D2D5F4" transform="translate(108,258)"/>
<path d="M0 0 C0.66 0.33 1.32 0.66 2 1 C2 1.66 2 2.32 2 3 C2.99 3.33 3.98 3.66 5 4 C3.68 4.99 2.36 5.98 1 7 C0.01 6.01 -0.98 5.02 -2 4 C-1.34 2.68 -0.68 1.36 0 0 Z " fill="#464241" transform="translate(87,173)"/>
<path d="M0 0 C2.125 0.9375 2.125 0.9375 4 2 C-1.17578125 5.22265625 -1.17578125 5.22265625 -3 6 C-3.99 5.67 -4.98 5.34 -6 5 C-6 4.34 -6 3.68 -6 3 C-4 2 -2 1 0 0 Z " fill="#E3E7FB" transform="translate(186,89)"/>
<path d="M0 0 C-1.625 2 -1.625 2 -4 4 C-7.25 4.25 -7.25 4.25 -10 4 C-7.39928297 0.98864344 -3.94054294 -1.97027147 0 0 Z " fill="#797AC5" transform="translate(200,87)"/>
<path d="M0 0 C0.99 0.33 1.98 0.66 3 1 C2.34 1 1.68 1 1 1 C1 1.66 1 2.32 1 3 C1.99 3.33 2.98 3.66 4 4 C3.01 4.495 3.01 4.495 2 5 C1.01 4.67 0.02 4.34 -1 4 C-2.89212737 3.77820215 -4.78884472 3.59385985 -6.6875 3.4375 C-7.68136719 3.35371094 -8.67523438 3.26992187 -9.69921875 3.18359375 C-10.83810547 3.09271484 -10.83810547 3.09271484 -12 3 C-12 2.67 -12 2.34 -12 2 C-11.21753906 1.93941406 -10.43507812 1.87882813 -9.62890625 1.81640625 C-8.61699219 1.73261719 -7.60507813 1.64882813 -6.5625 1.5625 C-5.55316406 1.48128906 -4.54382813 1.40007813 -3.50390625 1.31640625 C-1.06359221 1.26788532 -1.06359221 1.26788532 0 0 Z " fill="#D9D4D1" transform="translate(211,2)"/>
<path d="M0 0 C3.73487777 0.4979837 5.81237635 0.87491756 9 3 C9 3.66 9 4.32 9 5 C7.35 5 5.7 5 4 5 C4 4.01 4 3.02 4 2 C2.68 1.67 1.36 1.34 0 1 C0 0.67 0 0.34 0 0 Z " fill="#5E61C0" transform="translate(128,279)"/>
<path d="M0 0 C1.31896465 0.92838287 2.62998689 1.86805732 3.9375 2.8125 C4.66839844 3.33457031 5.39929688 3.85664063 6.15234375 4.39453125 C8 6 8 6 9 9 C8.34 9 7.68 9 7 9 C6.67 8.34 6.34 7.68 6 7 C4.02477154 5.95191959 2.02518491 4.9479589 0 4 C0 2.68 0 1.36 0 0 Z " fill="#56539E" transform="translate(164,251)"/>
<path d="M0 0 C2.75 0.125 2.75 0.125 6 1 C8.375 4.0625 8.375 4.0625 10 7 C9.401875 6.690625 8.80375 6.38125 8.1875 6.0625 C5.91043228 4.89790296 5.91043228 4.89790296 3 4 C3 3.34 3 2.68 3 2 C2.01 1.67 1.02 1.34 0 1 C0 0.67 0 0.34 0 0 Z " fill="#4F4A94" transform="translate(150,228)"/>
<path d="M0 0 C0.33 0 0.66 0 1 0 C1.07654536 4.51617599 1.10228696 8.59085217 0 13 C-0.33 13 -0.66 13 -1 13 C-1.22151549 11.20991533 -1.42682213 9.41781838 -1.625 7.625 C-1.74101563 6.62726563 -1.85703125 5.62953125 -1.9765625 4.6015625 C-1.98429687 3.74304688 -1.99203125 2.88453125 -2 2 C-1.34 1.34 -0.68 0.68 0 0 Z " fill="#ECF2FD" transform="translate(102,197)"/>
<path d="M0 0 C0.33 0.66 0.66 1.32 1 2 C3.52733235 2.65555119 3.52733235 2.65555119 6 3 C6 4.65 6 6.3 6 8 C2.83884224 6.63016497 2.0072908 6.0109362 0 3 C0 2.01 0 1.02 0 0 Z " fill="#6568C3" transform="translate(289,94)"/>
<path d="M0 0 C-3.14591933 2.80045623 -5.067064 3.35261589 -9.25 3.1875 C-10.14203125 3.16042969 -11.0340625 3.13335937 -11.953125 3.10546875 C-12.96632813 3.05326172 -12.96632813 3.05326172 -14 3 C-14 2.67 -14 2.34 -14 2 C-12.04396149 1.47061343 -10.08507711 0.95173199 -8.125 0.4375 C-7.03445313 0.14746094 -5.94390625 -0.14257812 -4.8203125 -0.44140625 C-2 -1 -2 -1 0 0 Z " fill="#6A6262" transform="translate(331,284)"/>
<path d="M0 0 C0.33 0.66 0.66 1.32 1 2 C1.66 2.33 2.32 2.66 3 3 C0.75 4.625 0.75 4.625 -2 6 C-4.3125 5.1875 -4.3125 5.1875 -6 4 C-4.02 2.68 -2.04 1.36 0 0 Z " fill="#E8E5E2" transform="translate(333,277)"/>
<path d="M0 0 C0.66 0 1.32 0 2 0 C2 0.66 2 1.32 2 2 C4.64 2 7.28 2 10 2 C10.33 2.66 10.66 3.32 11 4 C9.35 4.33 7.7 4.66 6 5 C6 4.34 6 3.68 6 3 C4.02 3 2.04 3 0 3 C0 2.01 0 1.02 0 0 Z " fill="#241B31" transform="translate(209,264)"/>
<path d="M0 0 C0.556875 0.226875 1.11375 0.45375 1.6875 0.6875 C0.0375 2.0075 -1.6125 3.3275 -3.3125 4.6875 C-4.6325 4.0275 -5.9525 3.3675 -7.3125 2.6875 C-2.88173077 -0.38942308 -2.88173077 -0.38942308 0 0 Z " fill="#6E73BA" transform="translate(243.3125,262.3125)"/>
<path d="M0 0 C4.05606165 0.46800711 7.46588679 0.87953208 11 3 C11 3.66 11 4.32 11 5 C6.69159287 3.92289822 3.36423277 2.96052484 0 0 Z " fill="#5A569D" transform="translate(204,259)"/>
<path d="M0 0 C0.66 0 1.32 0 2 0 C2.33 1.32 2.66 2.64 3 4 C2.01 4.495 2.01 4.495 1 5 C1.66 5.66 2.32 6.32 3 7 C2.01 7 1.02 7 0 7 C-2.1875 4.5 -2.1875 4.5 -4 2 C-2.68 1.67 -1.36 1.34 0 1 C0 0.67 0 0.34 0 0 Z " fill="#E1E0DE" transform="translate(354,233)"/>
<path d="M0 0 C1.67542976 0.28604898 3.34385343 0.61781233 5 1 C5.33 1.99 5.66 2.98 6 4 C5.01 5.485 5.01 5.485 4 7 C2.35 5.02 0.7 3.04 -1 1 C-0.67 0.67 -0.34 0.34 0 0 Z " fill="#E4DFDE" transform="translate(93,177)"/>
<path d="M0 0 C3.16115776 1.36983503 3.9927092 1.9890638 6 5 C3.69 5 1.38 5 -1 5 C-0.67 3.35 -0.34 1.7 0 0 Z " fill="#F2EFEC" transform="translate(60,154)"/>
<path d="M0 0 C1.98 0 3.96 0 6 0 C5.34 2.31 4.68 4.62 4 7 C0 2.25 0 2.25 0 0 Z " fill="#EEEBE8" transform="translate(74,152)"/>
<path d="M0 0 C0.66 0 1.32 0 2 0 C1.67 2.97 1.34 5.94 1 9 C0.01 8.67 -0.98 8.34 -2 8 C-1.125 1.125 -1.125 1.125 0 0 Z " fill="#5C5EC6" transform="translate(131,143)"/>
<path d="M0 0 C0.66 0 1.32 0 2 0 C3.125 3.3125 3.125 3.3125 4 7 C3.01 8.485 3.01 8.485 2 10 C0.39644899 6.49223216 -0.22036864 3.85645121 0 0 Z " fill="#E6E8FB" transform="translate(308,123)"/>
<path d="M0 0 C1.32 0.33 2.64 0.66 4 1 C4.33 2.32 4.66 3.64 5 5 C3.35 5.33 1.7 5.66 0 6 C0 4.02 0 2.04 0 0 Z " fill="#F1F0EC" transform="translate(0,98)"/>
<path d="M0 0 C1.32 0 2.64 0 4 0 C4 0.66 4 1.32 4 2 C6.31 2.33 8.62 2.66 11 3 C11 3.33 11 3.66 11 4 C7.7 3.67 4.4 3.34 1 3 C0.67 2.01 0.34 1.02 0 0 Z " fill="#2C2744" transform="translate(223,269)"/>
<path d="M0 0 C1.4800841 0.11362262 2.95910074 0.24122908 4.4375 0.375 C5.26121094 0.44460937 6.08492187 0.51421875 6.93359375 0.5859375 C7.95646484 0.79089844 7.95646484 0.79089844 9 1 C9.33 1.66 9.66 2.32 10 3 C2.25 3.125 2.25 3.125 0 2 C0 1.34 0 0.68 0 0 Z " fill="#6162C2" transform="translate(188,249)"/>
<path d="M0 0 C0.33 0.99 0.66 1.98 1 3 C0.34 3.66 -0.32 4.32 -1 5 C-4.29279709 4.68134222 -5.86535088 3.45484649 -8 1 C-6.865625 1.020625 -5.73125 1.04125 -4.5625 1.0625 C-1.18424326 1.41577477 -1.18424326 1.41577477 0 0 Z " fill="#6F6FAE" transform="translate(164,107)"/>
<path d="M0 0 C1.64666203 0.1135629 3.29236082 0.24117381 4.9375 0.375 C5.85402344 0.44460937 6.77054687 0.51421875 7.71484375 0.5859375 C8.84599609 0.79089844 8.84599609 0.79089844 10 1 C10.33 1.66 10.66 2.32 11 3 C7.7 3 4.4 3 1 3 C0.67 2.01 0.34 1.02 0 0 Z " fill="#6668BE" transform="translate(266,81)"/>
<path d="M0 0 C0 3.20395416 -0.74335022 5.09399739 -2 8 C-3.65 7.67 -5.3 7.34 -7 7 C-4.66666667 4.66666667 -2.33333333 2.33333333 0 0 Z " fill="#D2D0CB" transform="translate(227,54)"/>
<path d="M0 0 C0.66 0.66 1.32 1.32 2 2 C1.625 5.625 1.625 5.625 1 9 C0.01 8.67 -0.98 8.34 -2 8 C-2 7.01 -2 6.02 -2 5 C-2.66 4.67 -3.32 4.34 -4 4 C-2.68 4 -1.36 4 0 4 C-0.33 3.01 -0.66 2.02 -1 1 C-0.67 0.67 -0.34 0.34 0 0 Z " fill="#1F1414" transform="translate(339,227)"/>
<path d="M0 0 C1.15957207 3.47871621 0.77456651 4.34219645 -0.4375 7.6875 C-0.72496094 8.49574219 -1.01242187 9.30398437 -1.30859375 10.13671875 C-1.65083984 11.05904297 -1.65083984 11.05904297 -2 12 C-3.00724314 8.97827058 -3.30681401 7.14484365 -3 4 C-1.5 1.6875 -1.5 1.6875 0 0 Z " fill="#7073B8" transform="translate(304,175)"/>
<path d="M0 0 C2.97 1.98 2.97 1.98 6 4 C5.34 4.66 4.68 5.32 4 6 C1.875 5.625 1.875 5.625 0 5 C-0.5625 3.0625 -0.5625 3.0625 -1 1 C-0.67 0.67 -0.34 0.34 0 0 Z " fill="#ECE9E5" transform="translate(69,162)"/>
<path d="M0 0 C0.99 0.33 1.98 0.66 3 1 C1.02 3.31 -0.96 5.62 -3 8 C-3.33 7.34 -3.66 6.68 -4 6 C-2.68 4.02 -1.36 2.04 0 0 Z " fill="#DFE2FA" transform="translate(157,109)"/>
<path d="M0 0 C2.64 0 5.28 0 8 0 C5.75 2.0625 5.75 2.0625 3 4 C0.6875 3.75 0.6875 3.75 -1 3 C-0.67 2.01 -0.34 1.02 0 0 Z " fill="#221819" transform="translate(132,97)"/>
<path d="M0 0 C0.66 0.99 1.32 1.98 2 3 C-0.97 4.32 -3.94 5.64 -7 7 C-5.74797133 3.24391399 -4.36936427 2.85315035 -1 1 C-0.67 0.67 -0.34 0.34 0 0 Z " fill="#E6E9FB" transform="translate(199,82)"/>
<path d="M0 0 C-1.98 1.32 -3.96 2.64 -6 4 C-6.66 3.67 -7.32 3.34 -8 3 C-7.67 2.01 -7.34 1.02 -7 0 C-4.05610218 -1.17755913 -3.10046087 -1.03348696 0 0 Z " fill="#6D6CAE" transform="translate(238,268)"/>
<path d="M0 0 C3.68754757 0.49831724 5.60490662 1.10067643 8 4 C6.02 4 4.04 4 2 4 C2 3.34 2 2.68 2 2 C1.34 2 0.68 2 0 2 C0 1.34 0 0.68 0 0 Z " fill="#312B55" transform="translate(196,256)"/>
<path d="M0 0 C0.99 0.33 1.98 0.66 3 1 C-0.465 3.97 -0.465 3.97 -4 7 C-3.6875 4.625 -3.6875 4.625 -3 2 C-2.01 1.34 -1.02 0.68 0 0 Z " fill="#7274B7" transform="translate(260,246)"/>
<path d="M0 0 C1.98 0.495 1.98 0.495 4 1 C3.67 2.65 3.34 4.3 3 6 C1.68 5.01 0.36 4.02 -1 3 C-0.67 2.01 -0.34 1.02 0 0 Z " fill="#DFDCD7" transform="translate(359,241)"/>
<path d="M0 0 C0.99 0.33 1.98 0.66 3 1 C2.67 2.65 2.34 4.3 2 6 C1.34 6 0.68 6 0 6 C-0.38218767 4.34385343 -0.71395102 2.67542976 -1 1 C-0.67 0.67 -0.34 0.34 0 0 Z " fill="#241A1A" transform="translate(335,223)"/>
<path d="M0 0 C1.65 1.65 3.3 3.3 5 5 C4.01 5.33 3.02 5.66 2 6 C0.68 4.68 -0.64 3.36 -2 2 C-1.34 2 -0.68 2 0 2 C0 1.34 0 0.68 0 0 Z " fill="#32317C" transform="translate(114,200)"/>
<path d="M0 0 C0.66 0.33 1.32 0.66 2 1 C0.515 4.96 0.515 4.96 -1 9 C-3 6 -3 6 -2.75 3.9375 C-2 2 -2 2 0 0 Z " fill="#E7E8FB" transform="translate(110,175)"/>
<path d="M0 0 C1.32 1.32 2.64 2.64 4 4 C3.67 4.66 3.34 5.32 3 6 C2.34 6 1.68 6 1 6 C0.34 6.99 -0.32 7.98 -1 9 C-1 5.72724974 -0.70074844 3.153368 0 0 Z " fill="#453E3C" transform="translate(77,159)"/>
<path d="M0 0 C0.99 0.33 1.98 0.66 3 1 C4.1875 4.5625 4.1875 4.5625 5 8 C3.02 6.35 1.04 4.7 -1 3 C-0.67 2.01 -0.34 1.02 0 0 Z " fill="#2E224C" transform="translate(173,256)"/>
<path d="M0 0 C2.475 0.495 2.475 0.495 5 1 C5 1.66 5 2.32 5 3 C5.99 3.33 6.98 3.66 8 4 C6.02 4 4.04 4 2 4 C1.34 2.68 0.68 1.36 0 0 Z " fill="#1E1530" transform="translate(171,244)"/>
<path d="M0 0 C1.98 0.66 3.96 1.32 6 2 C6 2.99 6 3.98 6 5 C5.34 4.67 4.68 4.34 4 4 C3.34 4.66 2.68 5.32 2 6 C1.34 4.02 0.68 2.04 0 0 Z " fill="#EFEBEA" transform="translate(328,229)"/>
<path d="M0 0 C1.65 0 3.3 0 5 0 C5.66 1.32 6.32 2.64 7 4 C4.625 3.6875 4.625 3.6875 2 3 C1.34 2.01 0.68 1.02 0 0 Z " fill="#6361C6" transform="translate(147,224)"/>
<path d="M0 0 C-0.99 1.485 -0.99 1.485 -2 3 C-4.625 3.1875 -4.625 3.1875 -7 3 C-7 2.34 -7 1.68 -7 1 C-3.375 -1.125 -3.375 -1.125 0 0 Z " fill="#362E2A" transform="translate(195,8)"/>
<path d="M0 0 C1.98 1.65 3.96 3.3 6 5 C5.01 5.33 4.02 5.66 3 6 C2.34 5.67 1.68 5.34 1 5 C1 4.34 1 3.68 1 3 C0.34 2.67 -0.32 2.34 -1 2 C-0.67 1.34 -0.34 0.68 0 0 Z " fill="#312B28" transform="translate(392,276)"/>
<path d="M0 0 C2.475 0.495 2.475 0.495 5 1 C5.33 1.99 5.66 2.98 6 4 C4.35 3.67 2.7 3.34 1 3 C0.67 2.01 0.34 1.02 0 0 Z " fill="#5F5EB5" transform="translate(200,255)"/>
<path d="M0 0 C0.99 0.99 1.98 1.98 3 3 C2.67 3.99 2.34 4.98 2 6 C0.35 5.67 -1.3 5.34 -3 5 C-2.01 3.35 -1.02 1.7 0 0 Z " fill="#342D2D" transform="translate(331,218)"/>
<path d="M0 0 C1.98 1.65 3.96 3.3 6 5 C5.01 5.33 4.02 5.66 3 6 C2.01 5.34 1.02 4.68 0 4 C0 2.68 0 1.36 0 0 Z " fill="#5B59AE" transform="translate(129,218)"/>
<path d="M0 0 C3.375 0.3125 3.375 0.3125 7 1 C7.66 1.99 8.32 2.98 9 4 C7.3125 4.8125 7.3125 4.8125 5 5 C2.25 2.5625 2.25 2.5625 0 0 Z " fill="#E2DFDE" transform="translate(322,209)"/>
<path d="M0 0 C3.65316671 1.24976756 4.78065836 1.67098753 7 5 C4.625 4.75 4.625 4.75 2 4 C0.6875 1.9375 0.6875 1.9375 0 0 Z " fill="#2A2424" transform="translate(316,206)"/>
<path d="M0 0 C2.475 0.495 2.475 0.495 5 1 C5.33 2.65 5.66 4.3 6 6 C3.97945196 4.35830472 1.97956942 2.69088222 0 1 C0 0.67 0 0.34 0 0 Z " fill="#4B4240" transform="translate(62,154)"/>
<path d="M0 0 C0.66 1.32 1.32 2.64 2 4 C0.02 4.66 -1.96 5.32 -4 6 C-4 5.01 -4 4.02 -4 3 C-3.01 3 -2.02 3 -1 3 C-0.67 2.01 -0.34 1.02 0 0 Z " fill="#3F3735" transform="translate(71,148)"/>
<path d="M0 0 C1 3 1 3 0.25 5.125 C-1 7 -1 7 -4 8 C-2.87548273 5.0280615 -1.77706209 2.66559313 0 0 Z " fill="#7A7CC9" transform="translate(129,144)"/>
<path d="M0 0 C1.98 0 3.96 0 6 0 C6 0.66 6 1.32 6 2 C3.69 2.33 1.38 2.66 -1 3 C-0.67 2.01 -0.34 1.02 0 0 Z " fill="#EBEFFE" transform="translate(226,74)"/>
<path d="M0 0 C2.475 0.495 2.475 0.495 5 1 C4.67 2.65 4.34 4.3 4 6 C2.62437146 4.71034824 1.29233607 3.37310707 0 2 C0 1.34 0 0.68 0 0 Z " fill="#2E2624" transform="translate(178,48)"/>
</svg>
